<svg width="30" height="30" viewBox="0 0 30 30" fill="none" xmlns="http://www.w3.org/2000/svg">
<g clip-path="url(#clip0_117_7167)">
<path d="M6.87891 8.51367C6.91406 8.41992 6.91406 8.30859 6.87891 8.21484C6.67383 7.6582 6.56836 7.07227 6.56836 6.47461C6.56836 3.86133 8.57813 1.70508 11.1328 1.47656C10.8223 1.92773 10.582 2.42578 10.4121 2.96484C10.3418 3.19336 10.4707 3.43359 10.6992 3.50391C10.7402 3.51563 10.7871 3.52148 10.8281 3.52148C11.0156 3.52148 11.1855 3.4043 11.2383 3.2168C11.4609 2.50195 11.8477 1.85742 12.3574 1.34766C13.0898 0.621094 14.0273 0.222656 15 0.222656C15.9727 0.222656 16.9102 0.621094 17.6426 1.34766C18.1523 1.85156 18.5391 2.50195 18.7617 3.2168C18.8203 3.4043 18.9902 3.52148 19.1719 3.52148C19.2129 3.52148 19.2598 3.51563 19.3008 3.50391C19.5293 3.43359 19.6582 3.19336 19.582 2.96484C19.418 2.43164 19.1719 1.92773 18.8613 1.48242C21.416 1.71094 23.4258 3.86719 23.4258 6.48047C23.4258 7.07812 23.3203 7.66406 23.1152 8.2207C23.0801 8.31445 23.0801 8.42578 23.1152 8.51953C23.3203 9.07617 23.4258 9.66211 23.4258 10.2598C23.4258 10.9043 23.3027 11.5312 23.0742 12.1172C23.0684 10.7695 22.6582 9.48633 21.873 8.4375C21.3105 7.6875 20.3965 6.84961 18.9492 6.28711C19.0371 5.77148 19.0781 5.24414 19.0781 4.70508C19.0781 4.46484 18.8848 4.27148 18.6445 4.27148C18.4043 4.27148 18.2109 4.46484 18.2109 4.70508C18.2109 5.14453 18.1758 5.58398 18.1113 6.01172C17.2383 5.77148 16.207 5.625 14.9883 5.625C13.7695 5.625 12.7383 5.77148 11.8652 6.01172C11.8008 5.58984 11.7715 5.15039 11.7715 4.70508C11.7715 4.46484 11.5781 4.27148 11.3379 4.27148C11.0977 4.27148 10.9043 4.46484 10.9043 4.70508C10.9043 5.24414 10.9453 5.77148 11.0332 6.28711C9.58594 6.84961 8.67773 7.6875 8.11523 8.4375C7.32422 9.48633 6.91406 10.7695 6.91406 12.1172C6.68555 11.5371 6.5625 10.9102 6.5625 10.2598C6.56836 9.65625 6.67383 9.07031 6.87891 8.51367ZM27.791 5.67773H24.2461C24.2812 5.94141 24.2988 6.20508 24.2988 6.47461C24.2988 7.11914 24.1934 7.75781 23.9883 8.36133C24.1934 8.9707 24.2988 9.60352 24.2988 10.2539C24.2988 12.1992 23.3555 13.9922 21.7617 15.0938C21.8203 14.7012 21.8555 14.3027 21.8555 13.9102C21.9023 13.8691 21.9434 13.8223 21.9902 13.7812C22.4707 12.0234 22.1777 10.2656 21.1875 8.94727C20.5195 8.05664 19.5703 7.40039 18.3809 6.98437C18.3457 6.97266 18.3105 6.96094 18.2754 6.94922C17.3262 6.63867 16.2305 6.47461 15.0059 6.47461C13.7813 6.47461 12.6797 6.63281 11.7363 6.94922C11.7012 6.96094 11.666 6.97266 11.6309 6.98437C10.4414 7.40039 9.49219 8.05664 8.82422 8.94727C7.83398 10.2656 7.54102 12.0234 8.02148 13.7812C8.06836 13.8281 8.11523 13.875 8.16211 13.916C8.16797 14.3086 8.19727 14.707 8.25586 15.0996C6.65625 13.998 5.71289 12.1992 5.71289 10.2539C5.71289 9.60937 5.81836 8.9707 6.02344 8.36133C5.81836 7.75195 5.71289 7.11914 5.71289 6.47461C5.71289 6.20508 5.73047 5.93555 5.76563 5.67773H2.20898C1.02539 5.67773 0.0585938 6.64453 0.0585938 7.82813V14.6016C0.0585938 15.668 0.837891 16.5527 1.85156 16.7285C1.96875 16.7461 2.08594 16.7578 2.20898 16.7578H8.67188C8.77734 17.0449 8.89453 17.3203 9.0293 17.5898H2.14453V17.6191V28.9336C2.14453 29.4023 2.52539 29.7773 2.98828 29.7773H3.57422V28.4473C3.57422 27.9199 3.70313 27.4277 3.92578 26.9883C4.16016 26.543 4.49414 26.1563 4.89844 25.8633C5.23828 24.6738 6.32813 23.8008 7.62305 23.8008H8.37891C9.9375 23.8008 11.2383 22.6934 11.543 21.2285C11.3848 20.8711 11.2617 20.4902 11.1914 20.0859C11.1387 19.8105 11.1152 19.5293 11.1094 19.2363C11.1094 19.2129 11.1094 19.1895 11.1094 19.1602C11.1094 19.1133 11.1094 19.0664 11.1094 19.0195C10.002 17.9355 9.29297 16.418 9.08203 14.8477C9.08203 14.8066 9.07617 14.7598 9.06445 14.7246C8.94141 13.6758 9.04102 12.6152 9.39258 11.6543C10.207 9.42187 12.1992 8.19727 15.0059 8.19727C17.8535 8.19727 19.8574 9.45703 20.6484 11.7422C20.9766 12.6797 21.0645 13.7051 20.9473 14.7129C20.9297 14.7656 20.9238 14.8184 20.9297 14.8711C20.7129 16.4297 20.0039 17.9414 18.9023 19.0195V19.166V19.2422C18.8965 19.5762 18.8613 19.8984 18.7969 20.209C18.7207 20.5723 18.6094 20.9121 18.4629 21.2344C18.7676 22.6992 20.0684 23.8066 21.6211 23.8066H22.3711C23.9355 23.8066 25.207 25.0781 25.207 26.6426V29.7773H26.0742H27.0117C27.4746 29.7773 27.8555 29.3965 27.8555 28.9336V17.6191V17.5898H20.9707C21.1055 17.3203 21.2285 17.0391 21.334 16.7578H27.791C27.9141 16.7578 28.0312 16.7461 28.1484 16.7285C29.1621 16.5586 29.9414 15.668 29.9414 14.6016V7.82813C29.9414 6.64453 28.9746 5.67773 27.791 5.67773ZM13.1367 13.459C13.2949 13.2832 13.2832 13.0078 13.1074 12.8496C12.9316 12.6914 12.6563 12.7031 12.498 12.8789C12.1992 13.207 11.8359 13.2246 11.6426 13.207C11.3906 13.1777 11.1562 13.0605 11.0684 12.9023C10.9512 12.6973 10.6816 12.627 10.4766 12.7441C10.2715 12.8613 10.2012 13.1309 10.3184 13.3359C10.5469 13.7285 11.0156 14.0098 11.5488 14.0684C11.6191 14.0742 11.6836 14.0801 11.7539 14.0801C12.2871 14.0742 12.7793 13.8516 13.1367 13.459ZM19.623 13.459C19.7812 13.2832 19.7695 13.0078 19.5937 12.8496C19.418 12.6914 19.1426 12.7031 18.9844 12.8789C18.6855 13.207 18.3223 13.2246 18.1289 13.207C17.877 13.1777 17.6484 13.0605 17.5547 12.9023C17.4375 12.6973 17.168 12.627 16.9629 12.7441C16.7578 12.8613 16.6875 13.1309 16.8047 13.3359C17.0332 13.7285 17.502 14.0098 18.0352 14.0684C18.1055 14.0742 18.1699 14.0801 18.2402 14.0801C18.7676 14.0742 19.2598 13.8516 19.623 13.459ZM15.3574 23.6426C15.334 23.6484 15.3105 23.6484 15.2871 23.6484C15.2695 23.6484 15.252 23.6543 15.2344 23.6543C15.2168 23.6543 15.1992 23.6602 15.1816 23.6602C15.1641 23.6602 15.1406 23.6602 15.123 23.666C15.1113 23.666 15.0937 23.666 15.082 23.666C15.0762 23.666 15.0762 23.666 15.0703 23.666C15.0469 23.666 15.0234 23.666 15 23.666C14.9824 23.666 14.959 23.666 14.9414 23.666C14.9355 23.666 14.9238 23.666 14.918 23.666C14.9063 23.666 14.9004 23.666 14.8887 23.666C14.8711 23.666 14.8535 23.666 14.8359 23.666C14.8184 23.666 14.8008 23.666 14.7832 23.6602C14.7539 23.6602 14.7305 23.6543 14.7012 23.6543C14.6543 23.6484 14.6133 23.6426 14.5664 23.6367V23.6426V24.7559C14.5664 25.5234 13.9453 26.1445 13.1777 26.1445H6.75586C5.89453 26.1445 5.14453 26.6191 4.74609 27.3164C4.74023 27.3223 4.74023 27.3281 4.73438 27.334C4.54688 27.668 4.44141 28.0488 4.44141 28.459V29.7891H5.37305V28.459C5.37305 27.6914 5.99414 27.0703 6.76172 27.0703H13.1777C14.4551 27.0703 15.4922 26.0332 15.4922 24.7559V23.6367V23.6309C15.4746 23.6367 15.4512 23.6367 15.4336 23.6426C15.4043 23.6309 15.3809 23.6367 15.3574 23.6426ZM15 15.5332C13.3301 15.5332 11.9707 17.1621 11.9707 19.166C11.9707 19.6406 12.0469 20.0977 12.1875 20.5137C12.3457 19.1016 13.5469 18 15 18C16.4531 18 17.6543 19.1016 17.8125 20.5137C17.9531 20.0977 18.0293 19.6406 18.0293 19.166C18.0293 17.1621 16.6699 15.5332 15 15.5332ZM16.9688 20.8301C16.9688 21.6445 16.4707 22.3418 15.7676 22.6406C15.7617 22.6406 15.7559 22.6465 15.7559 22.6465C15.7383 22.6523 15.7207 22.6582 15.7031 22.6699C15.6621 22.6875 15.6211 22.6992 15.5801 22.7109C15.5684 22.7168 15.5566 22.7168 15.5449 22.7227C15.5273 22.7285 15.5039 22.7344 15.4863 22.7402C15.4746 22.7461 15.4629 22.7461 15.4453 22.752C15.4277 22.7578 15.416 22.7578 15.3984 22.7637C15.3867 22.7637 15.375 22.7695 15.3633 22.7695H15.3574C15.3516 22.7695 15.3516 22.7695 15.3457 22.7695C15.3164 22.7754 15.2812 22.7812 15.252 22.7812C15.2402 22.7812 15.2344 22.7813 15.2227 22.7871C15.2168 22.7871 15.2109 22.7871 15.2051 22.7871H15.1992H15.1934C15.1934 22.7871 15.1934 22.7871 15.1875 22.7871C15.1758 22.7871 15.1641 22.7871 15.1523 22.7871H15.1465C15.1406 22.7871 15.1406 22.7871 15.1406 22.7871C15.1289 22.7871 15.123 22.7871 15.1113 22.7871H15.1348C15.1289 22.7871 15.1172 22.7871 15.1113 22.7871H15.1055C15.0937 22.7871 15.082 22.7871 15.0645 22.7871C15.0527 22.7871 15.0469 22.7871 15.0352 22.7871C15.0234 22.7871 15.0176 22.7871 15.0059 22.7871C14.9941 22.7871 14.9883 22.7871 14.9766 22.7871C14.9648 22.7871 14.959 22.7871 14.9473 22.7871H14.9297C14.9238 22.7871 14.918 22.7871 14.9121 22.7871H14.9062H14.9004C14.8887 22.7871 14.8711 22.7871 14.8594 22.7871C14.8477 22.7871 14.8301 22.7871 14.8184 22.7812C14.7949 22.7812 14.7773 22.7754 14.7539 22.7754C14.748 22.7754 14.7363 22.7754 14.7305 22.7695C14.7187 22.7695 14.707 22.7637 14.7012 22.7637C14.6895 22.7637 14.6719 22.7578 14.6602 22.7578C14.6484 22.7578 14.6309 22.752 14.6191 22.752C14.5898 22.7461 14.5605 22.7402 14.5312 22.7344C14.5078 22.7285 14.4902 22.7227 14.4668 22.7168C14.4668 22.7168 14.4668 22.7168 14.4609 22.7168C14.4492 22.7109 14.4316 22.7109 14.4199 22.7051C14.3906 22.6934 14.3613 22.6875 14.332 22.6758C14.3027 22.6641 14.2734 22.6523 14.2441 22.6406C14.2441 22.6406 14.2441 22.6406 14.2383 22.6406C13.5352 22.3418 13.043 21.6445 13.043 20.8301C13.043 19.7461 13.9219 18.8613 15.0059 18.8613C16.084 18.8672 16.9688 19.7461 16.9688 20.8301Z" fill="#B22F34"/>
</g>
<defs>
<clipPath id="clip0_117_7167">
<rect width="30" height="30" fill="white"/>
</clipPath>
</defs>
</svg>
