<svg width="20" height="20" viewBox="0 0 20 20" fill="none" xmlns="http://www.w3.org/2000/svg">
<path d="M20 9.10418H18.8103C19.1313 8.40004 19.2841 7.72488 19.2841 7.04653C19.2841 4.05117 16.8472 1.61426 13.8518 1.61426C12.3844 1.61426 11.0149 2.19047 10 3.21582C8.98512 2.19051 7.61555 1.61426 6.14816 1.61426C3.15281 1.61426 0.715898 4.05117 0.715898 7.04653C0.715898 7.72488 0.868672 8.40004 1.18969 9.10418H0V10.2761H1.85992C2.2157 10.7977 2.65855 11.3421 3.1941 11.9205C6.24937 15.2201 10 18.3857 10 18.3857C10 18.3857 13.7516 15.2189 16.8059 11.9205C17.3415 11.3421 17.7843 10.7976 18.1401 10.2761H20V9.10418ZM16.25 10.2761H14.465L13.1676 7.39563L10.0575 13.835L7.04566 8.84965L6.30691 10.2761H3.75V9.10418H5.59414L6.96707 6.45324L9.9425 11.3785L13.2045 4.62441L15.2224 9.10414H16.25V10.2761Z" fill="#B22F34"/>
</svg>
