<svg width="20" height="20" viewBox="0 0 20 20" fill="none" xmlns="http://www.w3.org/2000/svg">
<path d="M19.3531 5.77488C19.076 2.99777 17.0543 0 14.2708 0C13.3947 0 12.5189 0.298107 11.6478 0.900395C10.4843 1.7193 8.90945 1.73348 7.7069 0.886223C6.85535 0.298107 5.9795 0 5.1034 0C2.31997 0 0.298257 2.99777 0.0211537 5.77488C-0.136251 7.35348 0.612813 8.5454 1.33733 9.69835L1.50207 9.96153C2.23798 11.1438 2.4794 12.4608 2.73499 13.8551C2.80003 14.2104 2.86557 14.5678 2.93997 14.9266C3.20746 16.2187 3.91856 19.6523 6.36137 19.9879C6.41881 19.996 6.4755 20 6.53092 20C7.96452 20 8.39902 17.7624 8.90237 15.1716C8.9669 14.8391 9.03168 14.506 9.09824 14.1806C9.1701 13.8309 9.44949 13.7058 9.68711 13.7058C9.92474 13.7058 10.2041 13.8309 10.276 14.1806C10.3425 14.5055 10.4073 14.8385 10.4719 15.1711C10.9752 17.7619 11.41 19.9995 12.8433 20C12.8987 20 12.9554 19.996 13.0129 19.9879C15.4557 19.6523 16.1668 16.2187 16.4345 14.9261C16.5086 14.5678 16.5742 14.2104 16.6392 13.8551C16.8948 12.4608 17.1362 11.1438 17.8719 9.96153L18.0369 9.69835C18.7614 8.5454 19.5105 7.35348 19.3531 5.77488ZM5.08492 3.62942C4.657 3.68104 3.76951 4.74896 3.63108 6.13524C3.60426 6.40247 3.37903 6.60188 3.11585 6.60188C3.09864 6.60188 3.08143 6.60087 3.06397 6.59935C2.77902 6.57101 2.57126 6.31694 2.5996 6.03199C2.76915 4.33546 3.87225 2.73155 4.96042 2.59996C5.24916 2.56554 5.50298 2.76799 5.53715 3.05243C5.57156 3.33688 5.36911 3.595 5.08492 3.62942Z" fill="#B22F34"/>
</svg>
