<svg width="20" height="20" viewBox="0 0 20 20" fill="none" xmlns="http://www.w3.org/2000/svg">
<g clip-path="url(#clip0_116_7021)">
<path d="M13.2115 11.2498C13.0334 11.2065 12.8583 11.1558 12.6861 11.0977C12.6669 11.752 12.6008 12.4042 12.4883 13.0491C13.0976 12.6866 13.2376 11.9562 13.2115 11.2498Z" fill="#B22F34"/>
<path d="M10.1106 9.38332C9.79524 9.03183 9.52186 8.64482 9.29598 8.23011C8.95313 8.21725 8.55098 8.21403 8.03527 8.21403C6.27348 8.21403 5.41063 7.32118 5.01134 6.65332C4.3842 7.33689 4.07812 8.41082 4.07812 9.91761C4.07812 11.8701 4.20634 13.3555 4.84455 14.7237C5.59027 16.319 6.66384 17.1283 8.03527 17.1283C9.39741 17.1283 10.4678 16.319 11.2138 14.7233C11.8006 13.4772 11.9388 12.203 11.9774 10.8044C11.4836 10.5622 11.025 10.254 10.6142 9.88832L8.82205 11.6808C8.73238 11.7737 8.5996 11.8109 8.47473 11.7782C8.34986 11.7455 8.25235 11.648 8.21966 11.5231C8.18698 11.3983 8.22421 11.2655 8.31705 11.1758L10.1106 9.38332ZM5.3567 13.9283C5.15945 13.9283 4.99955 13.7684 4.99955 13.5712C4.99955 13.3739 5.15945 13.214 5.3567 13.214C5.55394 13.214 5.71384 13.3739 5.71384 13.5712C5.71384 13.7684 5.55394 13.9283 5.3567 13.9283ZM6.07098 12.8569C5.87374 12.8569 5.71384 12.697 5.71384 12.4997C5.71384 12.3025 5.87374 12.1426 6.07098 12.1426C6.26823 12.1426 6.42813 12.3025 6.42813 12.4997C6.42813 12.697 6.26823 12.8569 6.07098 12.8569ZM6.78527 13.9283C6.58802 13.9283 6.42813 13.7684 6.42813 13.5712C6.42813 13.3739 6.58802 13.214 6.78527 13.214C6.98251 13.214 7.14241 13.3739 7.14241 13.5712C7.14241 13.7684 6.98251 13.9283 6.78527 13.9283ZM10.7138 13.214C10.9111 13.214 11.071 13.3739 11.071 13.5712C11.071 13.7684 10.9111 13.9283 10.7138 13.9283C10.5166 13.9283 10.3567 13.7684 10.3567 13.5712C10.3567 13.3739 10.5166 13.214 10.7138 13.214ZM9.99955 12.1426C10.1968 12.1426 10.3567 12.3025 10.3567 12.4997C10.3567 12.697 10.1968 12.8569 9.99955 12.8569C9.80231 12.8569 9.64241 12.697 9.64241 12.4997C9.64241 12.3025 9.80231 12.1426 9.99955 12.1426ZM9.28527 13.214C9.48251 13.214 9.64241 13.3739 9.64241 13.5712C9.64241 13.7684 9.48251 13.9283 9.28527 13.9283C9.08802 13.9283 8.92813 13.7684 8.92813 13.5712C8.92813 13.3739 9.08802 13.214 9.28527 13.214Z" fill="#B22F34"/>
<path d="M14.644 1.42871C13.0274 1.43132 11.5771 2.42312 10.9883 3.92871H11.4951C11.596 3.93054 11.6926 3.88719 11.7583 3.8105C12.4866 2.97864 13.5384 2.50152 14.644 2.50152C15.7496 2.50152 16.8014 2.97864 17.5297 3.8105C17.6547 3.96514 17.8208 3.92835 18.2997 3.92835C17.7108 2.4229 16.2605 1.43126 14.644 1.42871Z" fill="#B22F34"/>
<path d="M0.285156 17.5668C0.705871 18.0582 1.47658 18.7943 4.2098 19.1453C4.57301 19.1932 4.9598 19.2246 5.35694 19.2468V16.7282C4.60227 15.9292 4.05884 14.9545 3.77587 13.8925C3.20301 13.74 2.1423 13.2139 2.1423 11.4139C2.1423 10.5785 2.33516 10.075 2.7323 9.8739C2.93032 9.7788 3.15712 9.76271 3.36658 9.8289C3.38194 7.89318 3.88337 6.56854 4.9023 5.78747C4.9912 5.71937 5.10689 5.69691 5.21482 5.7268C5.32274 5.75669 5.41039 5.83548 5.45158 5.93961C5.68301 6.52247 6.3248 7.49961 8.03516 7.49961C8.39516 7.49961 8.69909 7.49961 8.97123 7.50639C8.49008 6.25616 8.44118 4.88086 8.8323 3.59961C7.71152 3.67395 6.61773 3.97644 5.61801 4.48854C5.50409 4.54997 5.46873 4.52425 5.0798 4.52425C3.98266 4.54675 1.37908 4.96104 1.05658 8.30997C0.711585 11.8968 2.65301 16.4389 0.285156 17.5668Z" fill="#B22F34"/>
<path d="M6.42746 20.0001H9.64174C9.83899 20.0001 9.99888 19.8402 9.99888 19.643V17.2891C8.79402 18.0274 7.27732 18.0296 6.07031 17.2948V19.643C6.07031 19.8402 6.23021 20.0001 6.42746 20.0001Z" fill="#B22F34"/>
<path d="M3.05368 10.5124C3.04547 10.5163 2.85547 10.6196 2.85547 11.4146C2.85547 12.3674 3.2094 12.8285 3.58404 13.051C3.44673 12.2423 3.37507 11.4238 3.36975 10.6035C3.20404 10.5088 3.09154 10.4924 3.05368 10.5124Z" fill="#B22F34"/>
<path d="M10.7148 16.7175V19.2475C11.1127 19.2257 11.4973 19.195 11.8684 19.146C14.6013 18.795 15.3723 18.0596 15.7934 17.5678C14.0495 16.7375 14.6373 13.9714 14.9223 11.4146C14.5911 11.4407 14.258 11.4301 13.9291 11.3828C13.9348 12.8517 13.2413 13.6478 12.2823 13.8975C12.0044 14.9539 11.4654 15.9236 10.7148 16.7175Z" fill="#B22F34"/>
<path d="M16.9738 4.25956C16.3815 3.59495 15.5336 3.21484 14.6434 3.21484C13.7532 3.21484 12.9053 3.59495 12.3131 4.25956C12.1123 4.50457 11.8112 4.64536 11.4945 4.64241H10.7831C10.7386 4.87793 10.7157 5.11702 10.7148 5.3567H11.4156C11.9669 5.37269 12.4963 5.14024 12.8577 4.72348C13.3139 4.21736 13.9633 3.92843 14.6447 3.92843C15.326 3.92843 15.9754 4.21736 16.4316 4.72348C16.7923 5.13972 17.3207 5.37214 17.8713 5.3567H18.572C18.5711 5.11702 18.5483 4.87793 18.5038 4.64241H17.7923C17.4756 4.64536 17.1746 4.50457 16.9738 4.25956Z" fill="#B22F34"/>
<path d="M14.6423 0C11.6836 0 9.28516 2.39847 9.28516 5.35714C9.28516 8.31581 11.6836 10.7143 14.6423 10.7143C17.601 10.7143 19.9994 8.31581 19.9994 5.35714C19.9961 2.39986 17.5996 0.0033459 14.6423 0ZM19.1284 4.18071C19.266 4.67437 19.3132 5.18884 19.2677 5.69929C19.2677 5.70464 19.2709 5.70893 19.2709 5.71429C19.2709 5.71964 19.2666 5.73071 19.2659 5.73929C19.0695 8.14706 17.0581 10.0011 14.6423 10.0011C12.2265 10.0011 10.2151 8.14706 10.0187 5.73929C10.0187 5.73071 10.0137 5.72321 10.0137 5.71429C10.0137 5.70536 10.0166 5.70464 10.0169 5.69929C9.9717 5.18872 10.0189 4.67418 10.1562 4.18036C10.6907 2.1407 12.5339 0.718354 14.6424 0.718438C16.751 0.718522 18.594 2.14102 19.1284 4.18071Z" fill="#B22F34"/>
<path d="M14.6436 6.07129C14.3309 6.10477 14.0601 6.30301 13.9336 6.59093C14.1403 6.73658 14.3915 6.80542 14.6436 6.78557C14.9016 6.81159 15.1596 6.737 15.364 6.57736C15.2246 6.29789 14.9537 6.10758 14.6436 6.07129Z" fill="#B22F34"/>
<path d="M15.8702 5.169C15.55 4.83284 15.106 4.64258 14.6418 4.64258C14.1775 4.64258 13.7336 4.83284 13.4134 5.169C12.9193 5.75889 12.183 6.09107 11.4138 6.07114H10.7812C11.1244 7.93333 12.7481 9.28511 14.6416 9.28511C16.5352 9.28511 18.1588 7.93333 18.502 6.07114H17.8695C17.1003 6.09117 16.3641 5.75897 15.8702 5.169ZM13.213 6.60686C13.3092 5.89146 13.9198 5.35752 14.6416 5.35752C15.3634 5.35752 15.974 5.89146 16.0702 6.60686C16.0702 7.79507 13.213 7.79936 13.213 6.60686Z" fill="#B22F34"/>
</g>
<defs>
<clipPath id="clip0_116_7021">
<rect width="20" height="20" fill="white"/>
</clipPath>
</defs>
</svg>
