<svg width="25" height="25" viewBox="0 0 25 25" fill="none" xmlns="http://www.w3.org/2000/svg">
<path fill-rule="evenodd" clip-rule="evenodd" d="M14.8422 18.477C14.8937 18.3957 15.0328 18.1801 15.168 18.0043C15.5195 17.5504 16.0305 16.9559 16.5922 16.2738C17.5711 15.0855 18.6922 13.6402 19.4359 12.1973C19.9781 11.1465 20.3172 10.091 20.3172 9.12305C20.3172 4.81055 16.8172 1.31055 12.5047 1.31055C8.19297 1.31055 4.69219 4.81055 4.69219 9.12305C4.69219 11.2621 4.6875 16.6402 4.6875 18.359C4.6875 21.1613 6.96328 23.4371 9.76562 23.4371C12.5289 23.4371 14.7797 21.2254 14.8422 18.477ZM8.59375 10.4207H8.59453C9.88828 10.4207 10.9383 11.4707 10.9383 12.7645C10.9383 14.0582 9.88828 15.1082 8.59453 15.1082C8.16328 15.1082 7.81328 15.4582 7.81328 15.8895C7.81328 16.3207 8.16328 16.6707 8.59453 16.6707C10.7508 16.6707 12.5008 14.9199 12.5008 12.7645C12.5008 10.9012 11.1937 9.34023 9.44609 8.95117C9.75 7.48945 10.9867 6.24961 12.4891 6.24961C14.2078 6.24961 15.6016 7.65039 15.6016 9.37461C15.6016 9.80586 15.9516 10.1559 16.3828 10.1559C16.8141 10.1559 17.1641 9.80586 17.1641 9.37461C17.1641 6.78711 15.0688 4.68711 12.4891 4.68711C9.92344 4.68711 7.8125 7.06602 7.8125 9.63945C7.8125 10.0707 8.1625 10.4207 8.59375 10.4207Z" fill="#B22F34"/>
</svg>
