<svg width="30" height="30" viewBox="0 0 30 30" fill="none" xmlns="http://www.w3.org/2000/svg">
<g clip-path="url(#clip0_117_7170)">
<path d="M15.0017 0C14.4617 0 14.0234 0.437871 14.0234 0.978281V2.93479C14.0234 3.4752 14.4617 3.91307 15.0017 3.91307C15.5418 3.91307 15.98 3.4752 15.98 2.93479V0.978281C15.98 0.437871 15.5418 0 15.0017 0Z" fill="#B22F34"/>
<path d="M3.259 13.6953H1.3025C0.762441 13.6953 0.324219 14.1335 0.324219 14.6736C0.324219 15.2137 0.762441 15.6519 1.3025 15.6519H3.259C3.79906 15.6519 4.23728 15.2137 4.23728 14.6736C4.23728 14.1335 3.79906 13.6953 3.259 13.6953Z" fill="#B22F34"/>
<path d="M28.6965 13.6953H26.74C26.1999 13.6953 25.7617 14.1335 25.7617 14.6736C25.7617 15.2137 26.1999 15.6519 26.74 15.6519H28.6965C29.2366 15.6519 29.6748 15.2137 29.6748 14.6736C29.6748 14.1335 29.2366 13.6953 28.6965 13.6953Z" fill="#B22F34"/>
<path d="M25.3781 4.29824C24.996 3.91609 24.3769 3.91645 23.9947 4.29789L22.6108 5.68123C22.2287 6.06332 22.2287 6.68271 22.6108 7.06486C22.8019 7.25594 23.0522 7.3515 23.3024 7.3515C23.5527 7.3515 23.8031 7.25594 23.9941 7.06521L25.3781 5.68188C25.7602 5.29979 25.7602 4.68039 25.3781 4.29824Z" fill="#B22F34"/>
<path d="M7.38971 5.68123L6.00579 4.29789C5.6237 3.91639 5.00459 3.91615 4.6225 4.29824C4.24042 4.68033 4.24042 5.29973 4.6225 5.68188L6.00649 7.06521C6.19756 7.256 6.44788 7.3515 6.69813 7.3515C6.94838 7.3515 7.19875 7.25594 7.38977 7.06486C7.7718 6.68277 7.7718 6.06344 7.38971 5.68123Z" fill="#B22F34"/>
<path d="M24.7818 25.4346H5.21656C4.67633 25.4346 4.23828 25.8726 4.23828 26.4129V29.0216C4.23828 29.5618 4.67627 29.9998 5.21656 29.9998H24.7818C25.322 29.9998 25.7601 29.5619 25.7601 29.0216V26.4129C25.76 25.8726 25.322 25.4346 24.7818 25.4346Z" fill="#B22F34"/>
<path d="M14.9997 5.86914C10.1447 5.86914 6.19531 9.81853 6.19531 14.6735V23.4779H23.804V14.6735C23.804 9.81848 19.8546 5.86914 14.9997 5.86914ZM18.9127 15.6517C18.3727 15.6517 17.9345 15.2135 17.9345 14.6734C17.9345 13.0551 16.618 11.7387 14.9997 11.7387C14.4596 11.7387 14.0214 11.3004 14.0214 10.7604C14.0214 10.2203 14.4596 9.78209 14.9997 9.78209C17.6969 9.78209 19.891 11.9762 19.891 14.6734C19.891 15.2136 19.4528 15.6517 18.9127 15.6517Z" fill="#B22F34"/>
</g>
<defs>
<clipPath id="clip0_117_7170">
<rect width="30" height="30" fill="white"/>
</clipPath>
</defs>
</svg>
