<svg width="28" height="28" viewBox="0 0 28 28" fill="none" xmlns="http://www.w3.org/2000/svg">
<path d="M24.9912 11.6002V15.4293C24.9912 15.702 24.9803 15.9747 24.9585 16.2475C24.4349 22.7493 18.413 27.462 12.6421 24.4184C12.0639 24.1239 11.2676 23.7857 10.5694 23.4257C7.93476 22.0644 7.19033 23.5803 6.98571 24.7256C6.87877 25.3242 6.3634 25.7602 5.75533 25.7602H4.2594C3.54724 25.7602 2.97689 25.1687 3.00911 24.4573C3.14248 21.5133 3.595 16.983 9.79481 18.7129C12.0094 19.3348 13.2312 18.4839 13.973 17.262C14.5294 16.3238 14.7803 15.5929 14.7803 14.502C14.8021 10.9784 14.6712 10.542 14.9658 9.5711C14.9985 9.47296 15.0312 9.37475 15.0748 9.28746L14.9439 9.40751C12.1978 8.2811 11.4773 6.41594 11.1284 4.2662C11.0226 3.61446 11.4072 2.98026 12.0292 2.75886L13.2617 2.32015C14.0343 2.04516 14.8637 2.50589 15.0571 3.30283C15.407 4.74471 16.2084 6.00637 17.9658 6.51657C20.9766 5.51295 24.9912 7.60748 24.9912 11.6002Z" fill="#B22F34"/>
</svg>
