<svg width="25" height="25" viewBox="0 0 25 25" fill="none" xmlns="http://www.w3.org/2000/svg">
<g clip-path="url(#clip0_117_7079)">
<path d="M18.6357 6.51367C20.4344 6.51367 21.8926 5.05554 21.8926 3.25684C21.8926 1.45813 20.4344 0 18.6357 0C16.837 0 15.3789 1.45813 15.3789 3.25684C15.3789 5.05554 16.837 6.51367 18.6357 6.51367Z" fill="#B22F34"/>
<path d="M17.1632 18.9111L15.7912 13.5303C15.547 12.5732 14.6828 11.8994 13.6916 11.8994H11.3088C10.3175 11.8994 9.45329 12.5732 9.20915 13.5303L7.83708 18.9111C7.632 19.7119 8.23747 20.4883 9.06266 20.4883H10.0929V23.916C10.0929 24.5117 10.5763 25 11.1769 25H13.8283C14.424 25 14.9123 24.5166 14.9123 23.916V20.4883H15.9425C16.7629 20.4883 17.3683 19.7119 17.1632 18.9111Z" fill="#B22F34"/>
<path d="M12.501 11.333C13.8305 11.333 14.9082 10.2553 14.9082 8.92578C14.9082 7.59631 13.8305 6.51855 12.501 6.51855C11.1715 6.51855 10.0938 7.59631 10.0938 8.92578C10.0938 10.2553 11.1715 11.333 12.501 11.333Z" fill="#B22F34"/>
<path d="M24.9463 16.7676L23.0908 9.4873C22.7588 8.18848 21.5918 7.28027 20.2539 7.28027H17.0312C16.5283 7.28027 16.0547 7.40723 15.6348 7.63672C15.8008 8.03223 15.8887 8.4668 15.8887 8.92578C15.8887 9.80469 15.5518 10.6055 15 11.2109C15.8447 11.5967 16.499 12.3486 16.7383 13.291L17.8027 17.4658L18.1104 18.6719C18.1299 18.7451 18.1445 18.8232 18.1543 18.8965C18.2471 19.502 18.0859 20.1074 17.7051 20.5957C17.2803 21.1475 16.6309 21.46 15.9375 21.46H15.8838V23.9111C15.8838 24.1309 15.8496 24.3408 15.7861 24.541C16.0498 24.8193 16.4307 24.9951 16.8457 24.9951H20.4346C21.2451 24.9951 21.8994 24.3408 21.8994 23.5303V18.8916H23.291C24.4043 18.8965 25.2197 17.8467 24.9463 16.7676Z" fill="#B22F34"/>
<path d="M6.88912 18.6719L7.19674 17.4658L8.26119 13.291C8.50045 12.3438 9.15475 11.5967 9.99947 11.2109C9.44771 10.6104 9.1108 9.80469 9.1108 8.92578C9.1108 8.47168 9.19869 8.03711 9.36471 7.63672C8.94479 7.40723 8.47115 7.28027 7.96822 7.28027H4.74557C3.40768 7.28027 2.2358 8.18848 1.90865 9.4873L0.0531833 16.7676C-0.220254 17.8467 0.595175 18.8965 1.70846 18.8965H3.10006V23.5352C3.10006 24.3457 3.75436 25 4.5649 25H8.15377C8.56881 25 8.94478 24.8242 9.21334 24.5459C9.14986 24.3457 9.11568 24.1357 9.11568 23.916V21.4648H9.06197C8.36373 21.4648 7.7192 21.1475 7.29439 20.6006C6.91353 20.1123 6.75728 19.502 6.84518 18.9014C6.85494 18.8232 6.86959 18.7451 6.88912 18.6719Z" fill="#B22F34"/>
<path d="M9.61784 3.26303C9.62144 1.46433 8.16622 0.00327561 6.36752 -0.000321789C4.56882 -0.00391919 3.10777 1.4513 3.10417 3.25C3.10057 5.0487 4.55579 6.50975 6.35449 6.51335C8.15319 6.51695 9.61424 5.06173 9.61784 3.26303Z" fill="#B22F34"/>
</g>
<defs>
<clipPath id="clip0_117_7079">
<rect width="25" height="25" fill="white"/>
</clipPath>
</defs>
</svg>
