<svg width="30" height="30" viewBox="0 0 30 30" fill="none" xmlns="http://www.w3.org/2000/svg">
<path d="M19.0163 14.4315C20.4605 15.0312 22.0103 14.9862 23.3492 14.4315C24.4754 13.9668 25.7498 13.8672 26.9861 14.2002C26.6855 10.1583 24.1286 7.0002 21.0167 7.0002C20.3141 7.0002 19.6427 7.1271 19.0163 7.3488V3H17.0165V11.0001C17.0165 12.0705 16.8026 13.089 16.4219 14.0217C17.2802 13.956 18.1667 14.0802 19.0163 14.4315Z" fill="#B22F34"/>
<path d="M26.9169 16.2799C26.0169 15.9088 25.0185 15.9067 24.1125 16.2817C22.2216 17.0629 20.1399 17.0629 18.2502 16.2799C17.3478 15.9088 16.3518 15.9067 15.4452 16.2817C15.2343 16.3687 15.0213 16.4428 14.8068 16.5103C13.3491 18.0415 11.2965 19.0006 9.01562 19.0006H7.01552C4.80602 19.0006 3.01562 20.7919 3.01562 23.0008V27.0004H5.01572V23.0005C5.01572 22.1527 5.54792 21.4312 6.29402 21.1402C8.13962 24.6244 11.799 27.0004 16.0155 27.0004C21.6915 27.0004 26.3595 22.3099 26.9502 16.2904C26.9397 16.2865 26.928 16.2844 26.9169 16.2799ZM14.0157 24.0004C13.7394 24.0004 13.5156 23.7769 13.5156 23.5003C13.5156 23.224 13.7394 23.0005 14.0157 23.0005C14.292 23.0005 14.5158 23.224 14.5158 23.5003C14.5158 23.7769 14.292 24.0004 14.0157 24.0004ZM15.0156 21.0004C14.7393 21.0004 14.5155 20.7769 14.5155 20.5003C14.5155 20.224 14.7393 20.0005 15.0156 20.0005C15.2916 20.0005 15.5157 20.224 15.5157 20.5003C15.5157 20.7769 15.2919 21.0004 15.0156 21.0004ZM17.2659 24.0004C16.8516 24.0004 16.5159 23.6644 16.5159 23.2504C16.5159 22.8364 16.8516 22.5004 17.2659 22.5004C17.6796 22.5004 18.0159 22.8364 18.0159 23.2504C18.0159 23.6644 17.6796 24.0004 17.2659 24.0004ZM18.0159 20.0005C17.4639 20.0005 17.0157 19.5523 17.0157 19.0003C17.0157 18.4486 17.4639 18.0004 18.0159 18.0004C18.5673 18.0004 19.0155 18.4486 19.0155 19.0003C19.0155 19.5523 18.5673 20.0005 18.0159 20.0005ZM20.0157 23.0005C19.7391 23.0005 19.5159 22.7767 19.5159 22.5004C19.5159 22.2241 19.7391 22.0003 20.0157 22.0003C20.2923 22.0003 20.5155 22.2241 20.5155 22.5004C20.5155 22.7767 20.2923 23.0005 20.0157 23.0005ZM22.2657 21.0004C21.8514 21.0004 21.5157 20.6644 21.5157 20.2504C21.5157 19.8364 21.8514 19.5004 22.2657 19.5004C22.68 19.5004 23.0157 19.8364 23.0157 20.2504C23.0157 20.6644 22.68 21.0004 22.2657 21.0004Z" fill="#B22F34"/>
</svg>
