<svg width="20" height="30" viewBox="0 0 20 30" fill="none" xmlns="http://www.w3.org/2000/svg">
<path fill-rule="evenodd" clip-rule="evenodd" d="M5.84869 4.2452L4.67424 6.06616C4.66376 6.08319 4.66376 6.09236 4.67162 6.10939C4.6821 6.12707 4.69061 6.13166 4.70895 6.13166H5.51921C5.73603 6.13166 5.91223 6.30786 5.91223 6.52467V6.6714H8.67773C9.60852 6.6714 10.3683 7.42991 10.3683 8.36332V17.1996H12.0773C13.0618 17.1996 13.8609 18.0007 13.8609 18.9852V21.4284C13.8609 21.5541 13.802 21.6694 13.7031 21.7428C13.7646 21.9098 13.7967 22.0893 13.7967 22.274V26.4288C13.7967 27.1179 13.4679 27.7526 12.917 28.126C12.7192 28.2609 12.4919 28.3271 12.2672 28.3271C11.9594 28.3271 11.6574 28.2039 11.4301 27.9655C11.0397 27.5535 11.005 26.9247 11.3469 26.4721C11.4085 26.3908 11.4622 26.3017 11.5022 26.2068V25.2007C11.3843 25.24 11.2618 25.2622 11.1334 25.2622C10.9834 25.2622 10.8445 25.2334 10.7162 25.1836C10.5747 25.6624 10.1306 26.0135 9.60589 26.0135C9.47751 26.0135 9.35437 25.9913 9.23974 25.952V26.005C9.23974 26.1347 9.2155 26.2585 9.17817 26.3745H9.33341C10.1116 26.3745 10.7483 27.0092 10.7483 27.79V29.4917C10.7483 29.6738 10.7031 29.8461 10.6277 30H16.5118V20.0129C16.5118 19.7961 16.688 19.6199 16.9048 19.6199C17.1216 19.6199 17.2978 19.7961 17.2978 20.0129V30H19.9539V16.9742C19.9539 15.9282 19.3467 15.0426 18.3734 14.662L13.1528 12.6249C12.4867 12.3642 12.0721 11.7576 12.0721 11.0417V9.23777C12.0721 8.62467 12.3098 8.081 12.7618 7.66572C13.6041 6.89017 14.0882 5.79367 14.0882 4.65721V4.08865C14.0882 1.83406 12.2535 0 9.99891 0H8.7524C7.18493 0 5.91223 1.27467 5.91223 2.84148V4.03166C5.91288 4.10764 5.8893 4.18166 5.84869 4.2452ZM10.762 23.6849C11.0188 23.6496 11.2651 23.5978 11.5028 23.5303V24.1068C11.5028 24.3105 11.3371 24.4762 11.1341 24.4762C10.9284 24.4762 10.762 24.3105 10.762 24.1068V23.6849ZM9.92751 23.7419C9.94389 23.7419 9.95961 23.7413 9.9786 23.7413V24.8574C9.9786 25.0611 9.81288 25.2269 9.60655 25.2269C9.40611 25.2269 9.24039 25.0611 9.24039 24.8574C9.24039 24.6406 9.06419 24.4644 8.84738 24.4644C8.62795 24.4644 8.45437 24.6406 8.45437 24.8574V26.0044C8.45437 26.2081 8.28865 26.3738 8.08559 26.3738C7.87991 26.3738 7.71354 26.2081 7.71354 26.0044V23.2972C8.35218 23.5841 9.12511 23.7419 9.92751 23.7419ZM12.2168 21.6026C12.3504 21.5188 12.4978 21.5181 12.6314 21.6007C12.8692 21.7467 13.0114 21.9983 13.0114 22.274V26.4288C13.0114 26.8572 12.8109 27.2489 12.4762 27.4762C12.3236 27.5797 12.1284 27.5587 12 27.4245C11.8742 27.2908 11.8611 27.0943 11.9731 26.9469C12.0963 26.7865 12.1926 26.6083 12.2646 26.4177C12.2777 26.3738 12.2889 26.3279 12.2889 26.2814V22.9769C12.2889 22.8452 12.2221 22.7221 12.1127 22.6493C12.0033 22.5766 11.8638 22.5635 11.7406 22.6146C11.2114 22.8386 10.5852 22.9565 9.92751 22.9565C8.99934 22.9565 8.13275 22.7194 7.54716 22.3055C7.42926 22.221 7.2714 22.2098 7.14039 22.2773C7.00939 22.3448 6.92882 22.479 6.92882 22.6264V26.005C6.92882 26.6424 7.44498 27.1605 8.08428 27.1605H9.33341C9.6786 27.1605 9.96223 27.4428 9.96223 27.79V29.4917C9.96223 29.6908 9.79913 29.8526 9.60131 29.8526C9.40087 29.8526 9.23777 29.6908 9.23777 29.4917V28.2766C9.23777 28.0598 9.06419 27.8836 8.84476 27.8836H8.01288C7.0179 27.8836 6.20502 27.0721 6.20502 26.0751V21.8672C6.20502 21.4317 6.5607 21.0773 6.99694 21.0773H7.19738C7.79083 21.7251 8.77271 22.1797 9.92817 22.2675C9.94716 22.2688 9.96288 22.2688 9.97926 22.2681C10.8072 22.2249 11.6017 21.9878 12.2168 21.6026ZM10.9998 20.2664C11.3338 20.2664 11.607 20.3666 11.8638 20.5827L12.1153 20.7956C12.0059 20.8264 11.8985 20.8736 11.7969 20.9365C11.3024 21.2489 10.6493 21.4415 9.96223 21.4814C8.51266 21.3629 7.38144 20.5533 7.38144 19.6317C7.38144 19.4876 7.41092 19.3434 7.46463 19.2033C7.84716 19.8694 8.53166 20.2664 9.30197 20.2664H10.9998ZM12.0779 17.9849C12.6288 17.9849 13.0755 18.433 13.0755 18.9845V20.5801L12.3694 19.9821C11.9764 19.6487 11.5159 19.4797 10.9998 19.4797H9.30197C8.80153 19.4797 8.37642 19.2288 8.13341 18.7913L7.68668 17.9849H12.0779ZM7.88188 11.0417V9.06878C7.88188 8.85131 7.70568 8.67576 7.48887 8.67576H6.53646C6.19127 8.67576 5.91354 8.39541 5.91354 8.05087V7.45742H8.67904C9.17948 7.45742 9.58297 7.86354 9.58297 8.36332V17.1996H7.0179C6.87904 17.1996 6.75066 17.2729 6.67795 17.3928C6.60852 17.5127 6.60589 17.6614 6.67533 17.7832L7.0179 18.3996C6.73952 18.7762 6.59541 19.1974 6.59541 19.6317C6.59541 19.8675 6.63799 20.0974 6.72118 20.3155C5.98297 20.4459 5.41834 21.0917 5.41834 21.8672V26.0751C5.41834 27.5057 6.58166 28.6697 8.01288 28.6697H8.45175V29.4917C8.45175 29.6738 8.49694 29.8461 8.57227 30H3.44214V20.0129C3.44214 19.7961 3.26594 19.6199 3.04913 19.6199C2.82969 19.6199 2.65611 19.7961 2.65611 20.0129V30H0V16.9742C0 15.9282 0.604585 15.0426 1.58057 14.662L6.80109 12.6249C7.46725 12.3642 7.88188 11.7576 7.88188 11.0417Z" fill="#B22F34"/>
</svg>
