<svg width="25" height="25" viewBox="0 0 25 25" fill="none" xmlns="http://www.w3.org/2000/svg">
<g clip-path="url(#clip0_117_7095)">
<path fill-rule="evenodd" clip-rule="evenodd" d="M10.7187 10.5032C11.1994 9.91438 13.1263 7.97115 16.2217 10.1207C16.3475 10.2082 16.3786 10.3811 16.2912 10.5069C16.2037 10.6328 16.0307 10.6639 15.9049 10.5764C12.9026 8.49151 11.2086 10.7583 11.0678 10.958C11.007 11.0601 10.885 11.115 10.7643 11.086C9.62881 10.8166 8.55301 10.761 7.48633 11.3183C6.5731 11.7954 5.85423 12.6647 5.37885 13.8801C5.06321 15.4451 6.16012 16.6972 6.28757 16.8364C7.52566 17.9949 10.4122 18.1972 11.7419 17.3118C12.0715 17.0922 13.0536 16.4948 14.2322 16.3123C14.5681 16.2481 15.0145 16.2447 15.3539 16.2838C15.8595 16.3422 16.1394 16.1627 16.4446 15.967C17.2012 15.4819 18.0842 14.9158 21.6747 16.4418C22.6139 16.2401 23.372 15.9964 23.9137 15.5765C24.4513 15.1597 24.7882 14.5501 24.897 13.6001C25.2437 10.5751 24.7082 8.03015 23.4057 6.05767C22.0834 4.05545 19.9648 2.63339 17.1708 1.88909C13.6219 0.943566 9.98972 0.979841 6.95794 1.90425C4.05679 2.78887 1.70946 4.48735 0.525701 6.91553C0.113064 7.76192 -0.0637559 8.72295 0.0205018 9.65215C0.100376 10.5327 0.415203 11.3851 0.98661 12.083C2.24396 13.6188 4.32854 13.5866 4.91742 13.5435C5.44338 12.2706 6.23094 11.35 7.23027 10.8279C8.21414 10.3139 9.39294 10.191 10.7187 10.5032ZM15.2285 12.6963C15.9138 12.8258 17.1068 13.0513 17.744 12.0247C18.0811 11.4815 18.4635 11.1275 18.8069 10.8094C19.2938 10.3586 19.6906 9.99097 19.6656 9.18778C19.6614 9.03501 19.7819 8.90773 19.9347 8.90352C20.0875 8.89931 20.2148 9.01978 20.2189 9.17261C20.2518 10.2248 19.7714 10.6696 19.1823 11.2152C18.8672 11.507 18.5164 11.8318 18.2148 12.3177C17.3777 13.6664 15.9479 13.3962 15.1265 13.241C13.9321 13.0152 13.1991 12.4674 11.9146 12.9892C11.2224 13.2704 10.3038 13.4835 9.56353 13.2735C8.79812 13.0564 8.00156 14.0313 8.24297 14.7994C8.28848 14.9456 8.20687 15.101 8.06067 15.1465C7.91448 15.1921 7.759 15.1104 7.71349 14.9642C7.34244 13.7839 8.51916 12.401 9.71324 12.7397C10.3269 12.9138 11.1359 12.7065 11.7063 12.4749C13.2232 11.8586 13.8659 12.4387 15.2285 12.6963ZM21.3368 15.0874C21.1091 14.8114 20.9555 14.3771 21.0259 14.0194C21.0623 13.8342 21.1571 13.686 21.3152 13.608C21.692 13.4223 22.0664 13.1594 22.363 12.8628C22.4714 12.7543 22.6473 12.7543 22.7558 12.8628C22.8642 12.9712 22.8642 13.1471 22.7558 13.2556C22.5258 13.4856 22.2799 13.6719 22.0645 13.8142C21.6522 14.0864 21.4696 13.9679 21.5964 14.4093C21.6674 14.656 21.8549 14.9312 22.1388 14.9312C22.2922 14.9312 22.4166 15.0555 22.4166 15.2089C22.4166 15.3623 22.2922 15.4867 22.1388 15.4867C21.7986 15.4867 21.5289 15.3203 21.3368 15.0874ZM18.3238 8.74936C18.1746 8.78472 18.025 8.69238 17.9896 8.54319C17.4633 6.33663 15.446 7.94496 15.4402 7.94952C15.3198 8.04416 15.1454 8.02328 15.0507 7.90286C14.9561 7.78245 14.977 7.60799 15.0974 7.51335C15.1052 7.50724 17.8004 5.35709 18.53 8.41516C18.5653 8.56435 18.473 8.71401 18.3238 8.74936ZM21.3533 8.54694C21.4708 8.44867 21.6456 8.46418 21.7439 8.58165C21.7462 8.58437 22.4402 9.39395 22.3656 10.488C22.6514 10.4917 22.9975 10.7207 23.2893 11.5671C23.339 11.7121 23.2618 11.87 23.1168 11.9197C22.9718 11.9694 22.8139 11.8922 22.7642 11.7472C22.4878 10.9458 22.2619 11.0886 22.2149 11.1305C22.1456 11.2163 22.0287 11.256 21.9169 11.2216C21.7715 11.1769 21.6894 11.0237 21.732 10.8782C21.9234 10.217 21.7609 9.46627 21.3186 8.93754C21.2203 8.82007 21.2359 8.64521 21.3533 8.54694ZM11.3924 14.681C11.4775 14.5533 11.65 14.5189 11.7776 14.604C12.493 15.0809 13.5851 13.835 14.5059 14.1715C15.3622 14.4845 16.3276 14.4871 17.1786 14.1562C17.3212 14.1011 17.4815 14.1721 17.5366 14.3146C17.5918 14.4573 17.5208 14.6176 17.3782 14.6727C16.4043 15.0514 15.2973 15.0505 14.3171 14.6923C13.6853 14.4615 12.5185 15.7655 11.4694 15.0662C11.3418 14.9811 11.3073 14.8086 11.3924 14.681ZM21.456 7.70384C21.3165 7.76555 21.1532 7.7024 21.0915 7.56278C20.412 6.03397 19.1774 5.95202 19.1739 5.95179C19.0211 5.94037 18.9064 5.80727 18.9179 5.6545C18.9292 5.50167 19.0623 5.38707 19.2151 5.39844C19.2196 5.39878 20.7811 5.50322 21.5971 7.33924C21.6588 7.47887 21.5956 7.64213 21.456 7.70384ZM13.857 7.94935C13.7048 7.96377 13.5697 7.852 13.5554 7.6998C13.5543 7.68942 13.2617 4.94047 14.9697 4.24386C14.8023 3.19072 15.8483 2.87682 15.8516 2.87578C15.9978 2.83022 16.1532 2.91188 16.1988 3.05808C16.2443 3.20428 16.1627 3.35976 16.0165 3.40526C16.0147 3.40584 15.483 3.56518 15.5162 4.10458C15.9976 4.04512 16.5944 4.11617 17.3337 4.37454C17.4781 4.42483 17.5544 4.58273 17.504 4.72714C17.4538 4.87155 17.2959 4.94779 17.1514 4.8975C13.6855 3.68652 14.1054 7.63642 14.1065 7.64773C14.1209 7.79992 14.0092 7.93499 13.857 7.94935ZM6.4554 7.8979C6.41883 8.04652 6.26871 8.13736 6.1201 8.10079C5.97154 8.06429 5.8807 7.91417 5.91721 7.76555C5.91882 7.75915 6.4385 5.52802 8.97096 6.27827C9.11779 6.32141 9.20181 6.47544 9.15868 6.62228C9.11554 6.76905 8.96156 6.85308 8.81472 6.80994C6.84393 6.22613 6.45655 7.89318 6.4554 7.8979ZM3.9339 7.26214C3.90869 7.41312 3.7659 7.51514 3.61492 7.49C3.46388 7.46485 3.36186 7.322 3.38706 7.17102C3.38844 7.16242 3.8565 4.21243 6.33348 4.1329C6.40713 3.495 6.94485 2.19244 10.2977 3.40434C10.4415 3.45647 10.5159 3.6153 10.4637 3.75913C10.4116 3.90296 10.2527 3.97724 10.1089 3.92511C6.83274 2.74095 6.86625 4.20908 6.87893 4.3682C6.90166 4.55684 6.76221 4.696 6.59508 4.69006C5.06339 4.63902 4.1655 5.87417 3.9339 7.26214ZM10.7483 7.49553C10.3806 6.20849 10.4584 6.13663 11.0666 5.5752C11.1193 5.52658 11.1764 5.47387 11.2239 5.42889C12.3385 4.37298 12.4207 2.6891 12.421 2.6842C12.4293 2.53143 12.56 2.41435 12.7128 2.42272C12.8656 2.43108 12.9827 2.56176 12.9743 2.71459C12.974 2.72007 12.8814 4.62201 11.6058 5.83034C11.5378 5.89481 11.4878 5.94095 11.442 5.98322C11.0572 6.33842 11.0079 6.38392 11.2821 7.34363C11.3241 7.49103 11.2386 7.64456 11.0912 7.68648C10.9438 7.72847 10.7903 7.64294 10.7483 7.49553ZM3.52137 11.4281C3.4483 11.5629 3.27967 11.613 3.14484 11.5398C3.13907 11.5367 1.1117 10.4692 2.47879 8.20823C2.55786 8.07703 2.7284 8.03476 2.85965 8.11383C2.99086 8.19295 3.03313 8.36343 2.954 8.49469C1.89095 10.2529 3.40534 11.0493 3.40961 11.0516C3.54444 11.1247 3.59444 11.2933 3.52137 11.4281Z" fill="#B22F34"/>
<path fill-rule="evenodd" clip-rule="evenodd" d="M21.3325 18.5405C21.7495 17.8423 21.5124 17.3003 21.6471 17.0089C21.6017 17.0092 21.5578 16.9983 21.5188 16.9783C18.1455 15.5344 17.39 16.0189 16.7431 16.4336C16.3507 16.6853 15.9909 16.9159 15.2901 16.8351C15.0172 16.8036 14.7466 16.8075 14.4845 16.8364C13.9402 18.559 16.7147 20.1037 17.1784 20.348C19.6873 20.1681 20.8473 19.353 21.3325 18.5405Z" fill="#B22F34"/>
<path fill-rule="evenodd" clip-rule="evenodd" d="M16.1628 20.3842C15.1576 19.7184 13.6308 18.44 13.8902 16.9443C13.0497 17.1551 12.3658 17.5633 12.0859 17.7469C12.2009 18.5564 12.2362 19.0287 12.2592 19.3375C12.2805 19.6217 12.29 19.7498 12.3417 19.865C12.3904 19.9736 12.4853 20.1095 12.6579 20.3568C13.0037 20.8523 13.6427 21.7678 14.8455 23.8051C15.5278 23.7809 15.8784 23.3808 16.02 23.1617C15.787 22.8532 15.4043 22.2409 15.1884 21.7096C14.987 21.2144 14.8144 20.3559 15.6084 20.3774C15.7989 20.3826 15.9837 20.3848 16.1628 20.3842Z" fill="#B22F34"/>
</g>
<defs>
<clipPath id="clip0_117_7095">
<rect width="25" height="25" fill="white"/>
</clipPath>
</defs>
</svg>
