<svg width="27" height="25" viewBox="0 0 27 25" fill="none" xmlns="http://www.w3.org/2000/svg">
<path d="M11.4911 4.55703C11.3733 4.57237 11.2654 4.63371 11.1958 4.73011C10.8699 5.18088 10.6728 5.71655 10.5983 6.26373C10.5676 6.48555 10.3738 6.64384 10.1502 6.64001C9.90415 6.63579 9.68714 6.39994 9.73124 6.1383C9.90979 4.84678 10.6602 3.60948 11.8745 3.06833C12.0952 2.96974 12.1943 2.71067 12.0957 2.48939C11.9971 2.26866 11.7381 2.16898 11.5173 2.26757C11.031 2.48446 10.5933 2.79557 10.2193 3.17952C10.0177 1.39779 8.50434 0.00767729 6.67113 9.22422e-06C5.9328 -0.00272937 5.31333 0.604691 5.31333 1.34302C5.31333 3.19288 6.72853 4.75114 8.5876 4.91469C8.85379 4.93825 9.03892 5.19129 8.97374 5.45036C8.94334 5.63286 8.74918 5.80967 8.50927 5.78885C7.48312 5.69919 6.55425 5.26063 5.84462 4.59318C5.75808 4.51157 5.64196 4.46885 5.52311 4.47433C2.49252 4.61027 0.715614 6.3306 0.168607 9.22962C-0.385137 12.1561 0.471332 15.767 2.06043 18.135C3.25084 19.9082 4.8733 21.0856 6.99417 20.773C7.14633 20.7506 7.27389 20.6472 7.33234 20.5049C8.9337 16.6067 11.4117 13.0975 14.5709 10.2747C15.57 9.37921 16.7331 8.90904 17.9636 8.88314C18.2557 8.877 18.4557 8.58945 18.3683 8.31072C17.3699 5.12847 14.7458 4.13195 11.4911 4.55703ZM4.73056 8.29905C3.34757 9.43118 3.29773 11.9332 3.86188 13.9099C3.92815 14.1427 3.79341 14.3848 3.56063 14.4516C3.32955 14.518 3.0862 14.384 3.01894 14.1503C2.39536 11.9634 2.42318 9.0554 4.17517 7.62097C4.36249 7.46761 4.63854 7.495 4.7919 7.68232C4.94527 7.86964 4.91733 8.14569 4.73056 8.29905Z" fill="#B22F34"/>
<path d="M25.8585 11.9951C24.8085 11.9863 23.8473 12.1796 22.9293 12.5872C22.8093 12.4179 22.6812 12.2536 22.547 12.0948C22.874 11.5963 23.092 11.0596 23.1977 10.4954C23.2426 10.2577 23.0854 10.0288 22.8477 9.98439C22.61 9.94003 22.381 10.0961 22.3367 10.3344C22.2644 10.7189 22.1258 11.0886 21.922 11.4391C20.0069 9.65664 17.5752 9.12611 15.4404 10.7095C15.2009 10.8871 15.2032 11.247 15.4467 11.4194C16.106 11.886 16.7638 12.4024 17.3635 12.9746C17.6505 13.2484 17.4528 13.7297 17.061 13.7297C16.9523 13.7297 16.8434 13.6895 16.7586 13.6086C16.0984 12.9787 15.3558 12.4147 14.6198 11.9114C14.4453 11.792 14.2109 11.8149 14.0613 11.9643C13.5933 12.4318 13.143 12.9154 12.7115 13.4144C12.5462 13.6055 12.576 13.898 12.778 14.0498C13.5433 14.6251 14.2452 15.2668 14.8876 15.979C15.0354 16.1429 15.0495 16.3927 14.9076 16.5617C14.7327 16.77 14.421 16.7705 14.2448 16.5748C13.6163 15.8768 12.9351 15.2593 12.2001 14.712C12.0075 14.5686 11.7347 14.6101 11.5899 14.8017C11.1561 15.376 10.7456 15.9673 10.359 16.5737C10.24 16.7606 10.2787 17.0054 10.4482 17.148C10.7034 17.3626 10.9549 17.5919 11.202 17.8378C11.3611 17.996 11.3908 18.2508 11.2532 18.4281C11.0884 18.6405 10.7809 18.6555 10.5962 18.4712C10.4296 18.305 10.2713 18.1564 10.1114 18.015C9.90108 17.8291 9.57168 17.8863 9.43689 18.1326C8.67211 19.5299 8.02991 20.9954 7.52212 22.5123C7.07983 23.8333 8.1635 25.155 9.54813 24.9852C10.9564 24.8075 12.3458 24.5181 13.703 24.1232C13.9524 24.0506 14.0861 23.7773 13.987 23.5373C13.6061 22.6152 13.1426 21.74 12.5928 20.9063C12.4595 20.7043 12.5153 20.4326 12.7172 20.2993C12.9195 20.1661 13.1911 20.2219 13.3243 20.4238C13.9075 21.3079 14.4198 22.2687 14.8442 23.3184C14.933 23.538 15.1788 23.6488 15.4014 23.5678C16.9068 23.0201 18.3634 22.339 19.752 21.5328C19.9387 21.4244 20.0196 21.1969 19.9425 20.9952C19.4677 19.7527 18.8785 18.559 18.165 17.4104C18.0382 17.2062 18.083 16.9309 18.2829 16.7976C18.4898 16.6597 18.7681 16.7209 18.8985 16.9303C19.5706 18.0101 20.1531 19.1544 20.6379 20.3664C20.7417 20.626 21.0575 20.7265 21.2895 20.5704C21.6678 20.3157 22.0402 20.0514 22.4059 19.7771C24.521 18.1891 24.649 15.6114 23.4016 13.3375C24.1695 13.0166 24.9758 12.8679 25.851 12.8714C26.1029 12.8725 26.2909 12.672 26.2931 12.4371C26.295 12.195 26.1006 11.9973 25.8585 11.9951ZM16.1954 20.6496C15.9821 20.7657 15.7163 20.6861 15.601 20.4744C15.4528 20.2024 15.2955 19.9324 15.1332 19.6719C15.0053 19.4665 15.0681 19.1962 15.2735 19.0683C15.4792 18.9404 15.7492 19.0032 15.8771 19.2086C16.0484 19.4835 16.2144 19.7684 16.3706 20.0552C16.4863 20.2677 16.4079 20.5338 16.1954 20.6496Z" fill="#B22F34"/>
</svg>
