<svg width="30" height="30" viewBox="0 0 30 30" fill="none" xmlns="http://www.w3.org/2000/svg">
<path d="M21.5207 17.0582C21.0844 14.3451 20.922 13.1289 19.2707 11.4426C18.1457 10.2754 18.0004 9.14103 17.9816 8.79416C18.3379 8.12851 18.3426 6.94259 18.3051 6.23946C20.2707 6.01337 20.2781 3.09061 18.905 2.18946C18.066 1.61291 17.2504 2.00664 16.7395 2.47539C16.2051 2.06289 15.1223 1.56601 13.3316 2.12383C11.1941 2.78947 10.3035 4.40197 10.7582 6.7832C11.0066 8.07695 10.4442 8.9207 10.4207 8.95351C10.2027 9.24785 10.4356 9.70607 10.8051 9.69414C10.8051 9.69415 11.4895 9.69415 11.4895 9.69415C12.053 11.3136 13.1215 13.0133 15.1598 11.4332C15.2113 12.3754 15.0051 14.377 12.516 15.291C11.4801 15.6707 10.8894 16.2285 10.7535 16.9551C10.6176 17.7051 11.0207 18.4082 11.3957 18.8769C9.46446 19.6551 8.25508 20.7754 7.79571 22.2098C7.21447 24.0379 8.0254 25.8379 8.49884 26.6676C8.8019 26.6245 9.20207 26.5441 9.48789 26.4848C10.927 26.1848 12.9895 25.6363 14.2316 24.7598C15.4738 23.8832 17.2504 23.2832 18.3238 22.9692C18.366 22.8238 18.7035 21.5676 18.0473 20.2129C17.4426 18.966 17.4426 16.9692 17.4426 16.8848C17.4426 16.627 17.6535 16.4207 17.9113 16.4207C18.1738 16.4207 18.3801 16.6316 18.3801 16.8894C18.3801 16.9082 18.3801 18.7551 18.891 19.8051C19.4582 20.977 19.4301 22.0691 19.3363 22.7113C19.8878 22.6859 20.0185 23.5056 19.4629 23.6348C19.4301 23.6442 16.477 24.3285 14.7707 25.5285C13.7898 26.2171 12.4005 26.718 11.1332 27.0613C10.4816 27.2348 9.86289 27.3707 9.34727 27.4738C10.3785 27.9379 11.452 28.1301 12.5207 28.1301C17.2738 28.1301 21.9426 24.3426 22.1863 24.141C22.266 24.0754 22.3223 23.9816 22.3457 23.8785C22.6504 22.5004 21.6332 17.5879 21.5207 17.0582Z" fill="#B22F34"/>
</svg>
