<svg width="23" height="20" viewBox="0 0 23 20" fill="none" xmlns="http://www.w3.org/2000/svg">
<path d="M16.9606 4.98479C15.1211 3.90304 13.1243 3.33594 11.0656 3.33594C4.05391 3.33594 0.143411 9.85587 0 9.99338C0.159294 10.1461 3.84783 16.6556 11.0656 16.6556C18.0773 16.6556 22.0087 10.1108 22.1311 9.99338C21.9107 9.7331 20.3482 6.9719 16.9606 4.98479ZM11.0656 14.8018C8.41595 14.8018 6.26192 12.6478 6.26192 9.99815C6.26192 7.34851 8.41595 5.19448 11.0656 5.19448C13.7152 5.19448 15.8692 7.34851 15.8692 9.99815C15.8692 12.6478 13.7152 14.8018 11.0656 14.8018Z" fill="#B22F34"/>
<path d="M12.099 8.95772C11.3722 8.23088 11.5758 7.37939 11.5429 7.13574H11.0664C9.48963 7.13574 8.20703 8.41834 8.20703 9.99506C8.20703 11.5448 9.51662 12.8544 11.0664 12.8544C12.6431 12.8544 13.9257 11.5718 13.9257 9.99506V9.51851C13.677 9.48468 12.8287 9.68642 12.099 8.95772Z" fill="#B22F34"/>
<path d="M10.5859 0H11.539V1.92003H10.5859V0Z" fill="#B22F34"/>
<path d="M17.3906 3.00781L18.7486 1.64981L19.4226 2.32375L18.0646 3.68176L17.3906 3.00781Z" fill="#B22F34"/>
<path d="M2.70312 2.32227L3.37707 1.64832L4.73474 3.00599L4.06079 3.67993L2.70312 2.32227Z" fill="#B22F34"/>
<path d="M10.5859 18.0801H11.539V20.0006H10.5859V18.0801Z" fill="#B22F34"/>
<path d="M2.69922 17.6797L4.05689 16.322L4.73084 16.996L3.37317 18.3536L2.69922 17.6797Z" fill="#B22F34"/>
<path d="M17.3867 16.9941L18.0607 16.3202L19.4187 17.6782L18.7447 18.3521L17.3867 16.9941Z" fill="#B22F34"/>
</svg>
