<svg width="30" height="30" viewBox="0 0 30 30" fill="none" xmlns="http://www.w3.org/2000/svg">
<path fill-rule="evenodd" clip-rule="evenodd" d="M15.1172 15C15 15 14.8828 15 14.7656 14.9414H14.5312V15.5274C14.5312 16.1719 14.0625 16.6406 13.418 16.6406H12.1875C11.543 16.6406 11.0156 16.1719 11.0156 15.5274V14.7656C10.3125 14.707 9.60938 14.5899 8.90625 14.5313C8.90625 14.7656 8.84766 15.0586 8.84766 15.3516C8.61328 16.9336 8.37891 19.043 9.96094 22.0313C10.5469 23.1446 11.4258 24.4922 12.3047 24.5508H12.3633C12.6562 24.5508 13.0664 24.4336 13.418 23.9063V23.8477C13.5938 23.5547 13.5938 22.7344 13.5352 21.0352C13.5352 20.2149 13.5352 19.336 13.5938 18.9844C13.7695 17.5781 14.5312 16.8164 15.1758 16.875C15.8789 16.9336 16.582 18.2227 16.5234 20.9766C16.5234 21.1524 16.4648 21.3867 16.4648 21.6797C16.4648 22.2656 16.4062 22.9102 16.5234 23.3203C16.582 23.9063 16.875 24.2578 17.2852 24.4336C17.7539 24.6094 18.2812 24.4922 18.75 24.0235C20.4492 22.5 21.6797 18.4571 21.2695 15.7031C21.2695 15.293 21.2109 15 21.2109 14.7656C20.332 14.8242 19.4531 14.8828 18.6328 14.9414V15.5274C18.6328 16.1719 18.1641 16.6406 17.5195 16.6406H16.2891C15.6445 16.6406 15.1172 16.1719 15.1172 15.5274V15ZM14.5312 14.1211H14.7656C14.8828 14.1797 15 14.1797 15.1172 14.1797V13.6524C15.1172 13.0078 15.6445 12.4805 16.2891 12.4805H17.5195C18.1641 12.4805 18.6328 13.0078 18.6328 13.6524V14.1211C19.4531 14.0625 20.2734 14.0039 21.1523 13.9453C21.1523 13.711 21.2109 13.6524 21.3281 13.4766C21.5039 13.2422 21.7383 12.8906 22.0898 12.0703C22.5 11.1328 22.6758 10.0781 22.6172 9.14064C22.5 8.08596 22.207 7.20705 21.6797 6.56252C20.8594 5.62502 19.6289 5.27346 18.2227 5.56642C17.6953 5.68361 17.2266 5.85939 16.8164 6.03517C15.9961 6.38674 15.293 6.62111 14.1211 6.32814C13.7695 6.26955 13.418 6.15236 13.0664 5.97658C12.0117 5.56642 10.8398 5.15627 9.60938 5.74221C8.08594 6.50392 7.38281 7.61721 7.38281 9.37502C7.38281 11.1328 7.85156 11.836 8.37891 12.7735L8.73047 13.4766C8.78906 13.5352 8.78906 13.5938 8.84766 13.6524C9.55078 13.7695 10.3125 13.8281 11.0156 13.9453V13.6524C11.0156 13.0078 11.543 12.4805 12.1875 12.4805H13.418C14.0625 12.4805 14.5312 13.0078 14.5312 13.6524V14.1211ZM19.2188 13.1836C19.1602 13.1836 19.1016 13.1836 19.043 13.125C18.8672 13.0078 18.75 12.7735 18.8672 12.5977C18.9844 12.3633 19.1016 12.1289 19.2188 11.9531C19.3945 11.6602 19.5703 11.4258 19.7461 11.0742C20.0977 10.1953 20.2148 8.67189 19.6289 8.14455C19.3945 7.96877 19.1016 8.02736 18.75 8.08596C18.1641 8.20314 17.5781 8.43752 17.168 8.6133C17.168 8.6133 17.168 8.67189 17.1094 8.67189C15.7617 9.08205 14.707 9.14064 13.5352 8.84767C13.0664 8.67189 12.6562 8.55471 12.1875 8.37892C12.0117 8.32033 11.8359 8.26174 11.6602 8.14455C11.25 8.02736 10.8984 7.96877 10.7812 8.02736C10.7227 8.02736 10.7227 8.02736 10.7227 8.02736C10.1367 8.32033 9.96094 8.6133 9.96094 9.37502C9.96094 10.4883 10.1367 10.8399 10.6055 11.6016C10.7227 11.7774 10.8398 12.0117 11.0156 12.3047C11.0742 12.4805 11.0156 12.7149 10.8398 12.832C10.6055 12.9492 10.3711 12.8906 10.2539 12.6563C10.1367 12.4219 10.0195 12.1875 9.90234 12.0117C9.43359 11.1914 9.14062 10.7227 9.14062 9.37502C9.14062 8.32033 9.49219 7.6758 10.3711 7.32424C10.8984 7.03127 11.6016 7.26564 11.9531 7.38283C12.1289 7.50002 12.3047 7.55861 12.4805 7.61721C12.8906 7.79299 13.3008 7.91017 13.7109 8.02736C14.9414 8.32033 15.8789 8.14455 16.875 7.85158C17.5781 7.55861 18.1055 7.38283 18.5742 7.26564C18.9844 7.20705 19.6289 7.08986 20.1562 7.50002C21.2109 8.43752 20.8594 10.5469 20.5078 11.3672V11.4258C20.332 11.7774 20.0977 12.0703 19.9219 12.3633C19.8047 12.5977 19.6875 12.7735 19.5703 12.9492C19.5117 13.125 19.3945 13.1836 19.2188 13.1836Z" fill="#B22F34"/>
<path fill-rule="evenodd" clip-rule="evenodd" d="M21.6211 22.7932C21.3867 22.7932 21.0938 22.6174 20.8594 22.4416C21.8555 20.2736 22.3242 17.5197 22.0898 15.6447C22.0898 15.2932 22.0312 15.0002 22.0312 14.6486C24.4922 14.4143 27.0117 14.0041 29.1211 13.594C29.0625 13.6525 29.0039 13.7697 28.9453 13.8283C28.7695 14.0627 28.7695 14.0627 28.9453 15.5275C29.1797 17.8713 28.2422 21.1525 26.8945 22.3244C26.25 22.8518 25.8398 22.7346 25.6055 22.676C25.3711 22.6174 25.0195 22.383 24.9023 21.6799C24.8438 21.3283 24.8438 20.801 24.9023 20.3322C24.9023 20.1565 24.9023 19.9221 24.9023 19.8049C24.9609 17.6369 24.4336 16.5822 23.8477 16.5822C23.4375 16.5236 22.8516 17.1682 22.6758 18.2229V19.5119C22.7344 21.2111 22.6758 21.8557 22.5 22.1486C22.2656 22.676 21.9141 22.7932 21.6211 22.7932C21.6797 22.7932 21.6797 22.7932 21.6211 22.7932ZM22.0898 13.8283C22.3828 13.3596 22.6172 12.8908 22.8516 12.3635C23.2617 11.3674 23.4961 10.1955 23.4375 9.08223C23.3789 8.67208 23.3203 8.32052 23.2617 7.96895C24.082 8.08614 24.6094 7.91036 25.1953 7.67598C25.5469 7.5588 25.8984 7.38302 26.3672 7.32442C27.5391 7.09005 28.5352 7.32442 29.1797 8.14473C30.0586 9.19942 30.2344 11.0158 29.5898 12.5979C27.4219 13.1252 24.7266 13.594 22.0898 13.8283Z" fill="#B22F34"/>
<path fill-rule="evenodd" clip-rule="evenodd" d="M4.10156 22.7934C3.28125 22.7934 2.63672 21.7387 2.10938 20.8012L2.05078 20.684C0.761719 18.2817 0.996094 16.5239 1.11328 15.2934C1.17188 14.6489 1.23047 14.1801 1.05469 13.8286C0.9375 13.6528 0.820312 13.477 0.761719 13.3012C0.644531 13.0668 0.46875 12.8325 0.410156 12.5981C2.57812 13.3012 5.33203 13.9457 8.08594 14.4145C8.08594 14.7075 8.02734 15.1176 8.02734 15.2934C7.91016 16.2895 7.85156 17.227 7.91016 18.2231C8.08594 19.6879 8.55469 21.0942 9.19922 22.3832C8.73047 22.7934 8.26172 22.7934 8.02734 22.6762C7.85156 22.6176 7.44141 22.4418 7.26562 21.7387C7.26562 21.6801 7.26562 21.6801 7.26562 21.6801C7.26562 21.3286 7.26562 20.9184 7.32422 20.5082C7.32422 20.2153 7.32422 19.9809 7.32422 19.8051C7.38281 17.6371 6.85547 16.6411 6.26953 16.5825C5.85938 16.5239 5.27344 17.1684 5.09766 18.2231C5.03906 18.5161 5.09766 19.1606 5.09766 19.8637C5.09766 21.27 5.09766 21.8559 4.92188 22.1489C4.6875 22.6762 4.33594 22.7934 4.10156 22.7934ZM0.0585938 11.6606C0 11.309 0 10.9575 0 10.4887C0 9.02386 0.644531 8.02777 1.81641 7.50043C2.8125 6.97308 3.80859 7.32465 4.62891 7.61761C4.92188 7.7348 5.21484 7.85199 5.50781 7.91058C5.97656 8.02777 6.38672 8.02777 6.73828 7.96918C6.62109 8.37933 6.5625 8.84808 6.5625 9.37543C6.5625 10.5473 6.73828 11.4848 7.26562 12.5395C7.38281 12.7739 7.5 12.9496 7.67578 13.184L7.85156 13.5356C4.98047 13.0668 2.16797 12.3637 0.0585938 11.6606Z" fill="#B22F34"/>
<path fill-rule="evenodd" clip-rule="evenodd" d="M13.418 15.8203H12.1875C12.0117 15.8203 11.8359 15.7031 11.8359 15.5273V13.6523C11.8359 13.4766 12.0117 13.3008 12.1875 13.3008H13.418C13.5938 13.3008 13.7109 13.4766 13.7109 13.6523V15.5273C13.7109 15.7031 13.5938 15.8203 13.418 15.8203Z" fill="#B22F34"/>
<path fill-rule="evenodd" clip-rule="evenodd" d="M17.5195 15.8203H16.2891C16.1133 15.8203 15.9375 15.7031 15.9375 15.5273V13.6523C15.9375 13.4766 16.1133 13.3008 16.2891 13.3008H17.5195C17.6953 13.3008 17.8125 13.4766 17.8125 13.6523V15.5273C17.8125 15.7031 17.6953 15.8203 17.5195 15.8203Z" fill="#B22F34"/>
</svg>
