<svg width="20" height="20" viewBox="0 0 20 20" fill="none" xmlns="http://www.w3.org/2000/svg">
<path d="M14.9465 5.35154L6.20485 0L5.09693 1.59921L4.84511 1.96261L11.0468 5.92416C11.5111 6.21752 12.0951 6.2575 12.6091 6.03104C12.9145 5.89639 13.2597 5.93131 13.5327 6.12438C13.9276 6.4038 14.0442 6.94938 13.7979 7.36642C13.7404 7.46394 13.6672 7.54897 13.5805 7.6194C13.2875 7.85704 13.0857 8.17644 12.9969 8.54321C12.9707 8.65166 12.9253 8.75428 12.8619 8.84814C12.591 9.24943 12.0482 9.37862 11.6263 9.14191C11.3757 9.00156 11.205 8.75882 11.1579 8.47603C11.0394 7.7655 10.6318 7.1435 10.0404 6.76977L4.13105 2.9931L3.87924 3.3565L2.66528 5.10868C2.87623 5.33876 3.39964 5.87196 4.28599 6.55163C5.38378 7.3933 7.27857 8.63808 10.0719 9.78835C10.1323 9.81322 10.1788 9.86373 10.1983 9.92609C10.2181 9.98857 10.209 10.0566 10.1736 10.1116C10.1705 10.1167 9.84193 10.6338 9.56199 11.3632C9.30808 12.0244 9.04261 13.0019 9.21888 13.9032C9.37498 14.701 9.2849 15.858 8.95119 17.3427C8.78388 18.0874 8.59378 18.7324 8.48831 19.0718L10.65 19.364L11.088 19.4232L11.99 14.1576C12.0991 13.5016 11.921 12.8425 11.5016 12.3492C11.3246 12.141 11.2568 11.8682 11.3159 11.6006C11.4118 11.1656 11.8332 10.8715 12.2753 10.9315C12.3952 10.9477 12.5077 10.9873 12.6097 11.0496C12.8891 11.2196 13.2189 11.2744 13.5384 11.2038C13.655 11.1782 13.7741 11.1769 13.893 11.2004C14.3305 11.2868 14.6341 11.7013 14.5842 12.1441C14.5592 12.366 14.4517 12.567 14.282 12.71C13.6137 13.2723 13.164 14.0733 13.016 14.9641L12.2233 19.5767L12.6613 19.6359L15.3549 20L17.2382 10.5976C17.6484 8.54996 16.7275 6.44161 14.9465 5.35154ZM15.6726 9.79317C15.6211 9.8679 15.5368 9.90592 15.4466 9.89527L14.4843 9.78055C14.3928 9.76962 14.3192 9.7114 14.2876 9.62481C14.2775 9.59696 14.2724 9.56855 14.2724 9.54055C14.2724 9.48156 14.2947 9.42466 14.3371 9.37882C14.5301 9.1714 14.7374 8.94876 14.9143 8.75878C14.9604 8.70916 15.0227 8.68236 15.0888 8.68236C15.0997 8.68236 15.1108 8.683 15.1217 8.68457C15.1999 8.69509 15.2658 8.74122 15.3024 8.81102L15.6873 9.54565C15.7295 9.62597 15.7239 9.71843 15.6726 9.79317Z" fill="#B22F34"/>
</svg>
