<svg width="20" height="20" viewBox="0 0 20 20" fill="none" xmlns="http://www.w3.org/2000/svg">
<path d="M5.57269 14.6486C5.01605 15.7588 4.71973 16.9922 4.71973 18.2573C4.71973 19.2183 5.50159 20 6.46258 20C7.42343 20 8.20528 19.2181 8.20528 18.2571C8.20528 17.9687 8.23214 17.6846 8.28417 17.407C7.03204 16.9198 6.03869 15.9109 5.57269 14.6486Z" fill="#B22F34"/>
<path d="M11.6824 17.407C11.7343 17.6846 11.7611 17.9687 11.7611 18.2573C11.7611 19.2181 12.543 20 13.504 20C14.465 20 15.2467 19.2181 15.2467 18.2573C15.2467 16.9922 14.9505 15.7588 14.3937 14.6486C13.9277 15.9109 12.9344 16.9198 11.6824 17.407Z" fill="#B22F34"/>
<path d="M16.242 8.19702C16.936 7.5032 16.936 6.3742 16.242 5.68024C15.906 5.34409 15.459 5.159 14.9837 5.159C14.5083 5.159 14.0614 5.34409 13.7254 5.68024C12.5094 6.89605 11.3205 7.46231 9.9832 7.46231C8.64608 7.46231 7.45696 6.89605 6.24114 5.68024C5.54733 4.98642 4.41833 4.98642 3.72436 5.68024C3.38821 6.01639 3.20312 6.46332 3.20312 6.93863C3.20312 7.41394 3.38821 7.86087 3.72436 8.19702C4.4165 8.88915 5.5249 9.75677 6.4656 10.2345V11.6096H13.501V10.2345C14.4415 9.75677 15.5499 8.88931 16.242 8.19702Z" fill="#B22F34"/>
<path d="M6.46558 12.7916V13.0255C6.46558 14.9652 8.04364 16.5432 9.98333 16.5432C11.923 16.5432 13.5011 14.9652 13.5011 13.0255V12.7916H6.46558Z" fill="#B22F34"/>
<path d="M9.98333 6.54967C11.1895 6.54967 12.2448 5.8937 12.8131 4.92019C13.0955 4.43633 13.2582 3.87435 13.2582 3.27483C13.2582 1.46911 11.7891 0 9.98333 0C8.17761 0 6.7085 1.46911 6.7085 3.27483C6.7085 3.87435 6.87115 4.43618 7.15359 4.92003C7.72183 5.89354 8.77713 6.54967 9.98333 6.54967Z" fill="#B22F34"/>
</svg>
