<svg width="30" height="30" viewBox="0 0 30 30" fill="none" xmlns="http://www.w3.org/2000/svg">
<g clip-path="url(#clip0_117_7110)">
<path d="M29.018 10.3283C28.5 9.39592 27.3242 9.05994 26.3918 9.57797L23.3277 11.2803L21.3079 8.19123C21.2481 8.19334 21.1885 8.1958 21.1282 8.1958C19.0938 8.1958 17.3416 6.96814 16.5709 5.21525C14.2025 5.21508 10.2056 5.21484 10.2056 5.21484C9.50166 5.21484 8.8535 5.59787 8.51389 6.21445L6.0676 10.6564C5.55309 11.5908 5.89334 12.7653 6.82762 13.2798C7.12305 13.4425 7.4425 13.5197 7.75756 13.5197C8.43871 13.5197 9.09918 13.1586 9.45098 12.5198L11.3468 9.0774H14.9942L9.42537 18.7983H2.6735C1.60691 18.7983 0.742188 19.6629 0.742188 20.7296C0.742188 21.7962 1.60686 22.6609 2.6735 22.6609H10.5275C11.2105 22.6609 11.8427 22.3002 12.1902 21.7121L13.5775 19.3644L17.08 22.1239L14.9801 27.3482C14.5823 28.3379 15.062 29.4626 16.0517 29.8604C16.2879 29.9554 16.5316 30.0003 16.7714 30.0003C17.5367 30.0003 18.2611 29.5424 18.5639 28.7888L21.2034 22.2223C21.5232 21.4268 21.2802 20.5157 20.6067 19.985L16.7232 16.9253L19.4082 12.3441L21.0782 14.8982C21.447 15.4621 22.0637 15.7728 22.6961 15.7728C23.0141 15.7728 23.3363 15.6941 23.6326 15.5295L28.2677 12.9544C29.2001 12.4365 29.536 11.2607 29.018 10.3283Z" fill="#B22F34"/>
<path d="M21.1251 6.4377C22.9028 6.4377 24.3439 4.99657 24.3439 3.21885C24.3439 1.44113 22.9028 0 21.1251 0C19.3474 0 17.9062 1.44113 17.9062 3.21885C17.9062 4.99657 19.3474 6.4377 21.1251 6.4377Z" fill="#B22F34"/>
</g>
<defs>
<clipPath id="clip0_117_7110">
<rect width="30" height="30" fill="white"/>
</clipPath>
</defs>
</svg>
