<svg width="30" height="30" viewBox="0 0 30 30" fill="none" xmlns="http://www.w3.org/2000/svg">
<path d="M24.7297 12.3639C24.7536 12.0608 24.7656 11.7561 24.7656 11.4551C24.7656 5.13873 19.6269 0 13.3105 0C6.9942 0 1.85547 5.13873 1.85547 11.4551C1.85547 14.5795 3.13855 17.5723 5.38891 19.7285V30H19.4744V24.7266H24.7656V20.4297H28.1426L24.7297 12.3639ZM11.5527 15.8789C13.9921 15.8789 15.9766 13.8944 15.9766 11.4551C15.9766 9.98502 14.7806 8.78906 13.3105 8.78906C11.8405 8.78906 10.6445 9.98502 10.6445 11.4551C10.6445 11.9559 11.0519 12.3633 11.5527 12.3633C12.0535 12.3633 12.4609 11.9559 12.4609 11.4551H14.2188C14.2188 12.9251 13.0228 14.1211 11.5527 14.1211C10.0827 14.1211 8.88672 12.9251 8.88672 11.4551C8.88672 9.01576 10.8712 7.03125 13.3105 7.03125C15.7499 7.03125 17.7344 9.01576 17.7344 11.4551C17.7344 14.8637 14.9613 17.6367 11.5527 17.6367C8.14416 17.6367 5.37109 14.8637 5.37109 11.4551C5.37109 7.07725 8.93272 3.51562 13.3105 3.51562C17.6884 3.51562 21.25 7.07725 21.25 11.4551H19.4922C19.4922 8.0465 16.7191 5.27344 13.3105 5.27344C9.90197 5.27344 7.12891 8.0465 7.12891 11.4551C7.12891 13.8944 9.11342 15.8789 11.5527 15.8789Z" fill="#B22F34"/>
</svg>
