<svg width="30" height="30" viewBox="0 0 30 30" fill="none" xmlns="http://www.w3.org/2000/svg">
<path d="M9.89479 21.4172C9.86566 22.2655 9.51494 23.071 8.91379 23.6702C8.88594 23.6981 8.85287 23.7202 8.81647 23.7353C8.78007 23.7504 8.74105 23.7582 8.70165 23.7582C8.66224 23.7582 8.62322 23.7504 8.58681 23.7354C8.5504 23.7203 8.51732 23.6982 8.48944 23.6704C8.46157 23.6425 8.43946 23.6094 8.42436 23.573C8.40927 23.5366 8.4015 23.4976 8.40148 23.4582C8.40147 23.4188 8.40922 23.3798 8.42428 23.3434C8.43935 23.307 8.46144 23.2739 8.48929 23.246C9.42499 22.3103 9.54919 20.8379 8.82799 19.7639L7.08079 21.5111C7.05294 21.539 7.01987 21.5611 6.98347 21.5762C6.94707 21.5913 6.90805 21.5991 6.86865 21.5991C6.82924 21.5991 6.79022 21.5913 6.75381 21.5763C6.7174 21.5612 6.68432 21.5391 6.65644 21.5113C6.62857 21.4834 6.60646 21.4503 6.59136 21.4139C6.57627 21.3775 6.5685 21.3385 6.56848 21.2991C6.56847 21.2597 6.57622 21.2207 6.59128 21.1843C6.60635 21.1479 6.62844 21.1148 6.65629 21.0869L8.64049 19.1027L9.32539 18.4196C8.79634 18.02 8.14028 17.8259 7.47896 17.8733C6.81764 17.9207 6.19596 18.2063 5.72929 18.6773C5.70142 18.7052 5.66833 18.7273 5.63192 18.7423C5.59551 18.7574 5.55649 18.7651 5.51709 18.7651C5.47768 18.7651 5.43867 18.7573 5.40227 18.7422C5.36587 18.7272 5.3328 18.705 5.30494 18.6772C5.27709 18.6493 5.255 18.6162 5.23993 18.5798C5.22487 18.5434 5.21712 18.5044 5.21713 18.465C5.21715 18.4256 5.22492 18.3865 5.24001 18.3501C5.25511 18.3137 5.27722 18.2807 5.30509 18.2528C5.88556 17.6719 6.6591 17.3242 7.47893 17.2758C8.29875 17.2274 9.10781 17.4817 9.75259 17.9903L12.3836 15.3593C11.3051 14.4842 9.70099 14.5493 8.70139 15.5498C8.64396 15.5997 8.56973 15.6259 8.49371 15.6231C8.41769 15.6204 8.34557 15.5888 8.29193 15.5349C8.23829 15.4809 8.20715 15.4086 8.20481 15.3326C8.20246 15.2565 8.22908 15.1825 8.27929 15.1253C8.90069 14.5009 9.7438 14.1476 10.6247 14.1425H10.6493C11.4403 14.141 12.206 14.4211 12.8093 14.9327L12.9806 14.7614C12.9131 11.8676 11.8721 7.54762 11.5406 7.28242C11.0102 6.85642 9.85579 6.78502 7.43899 9.29242C7.43899 9.29242 1.50769 14.9234 2.95369 26.3024C2.95369 26.3024 10.2929 27.896 12.5537 24.8942L12.7793 22.7051C12.7793 22.7051 12.9689 20.0117 12.9944 16.8887C12.9966 16.6429 12.9975 16.3951 12.9971 16.1453C12.9971 15.9635 12.9963 15.7812 12.9947 15.5984L9.25969 19.3325C9.69851 19.9369 9.92211 20.6709 9.89479 21.4172Z" fill="#B22F34"/>
<path d="M12.9663 15.2995C12.9642 15.0199 12.9606 14.7637 12.9558 14.5159V14.4664L12.9531 14.3386L14.5671 12.7246C14.6227 12.6687 14.6889 12.6244 14.7618 12.5942C14.8346 12.564 14.9128 12.5486 14.9916 12.5488H15.0168C15.1481 12.5488 15.2758 12.5918 15.3803 12.6713C15.4848 12.7508 15.5603 12.8623 15.5953 12.9889C15.6303 13.1154 15.6229 13.2499 15.5741 13.3718C15.5253 13.4937 15.4379 13.5962 15.3252 13.6636L12.9732 16.0153L12.9663 15.2995Z" fill="#B22F34"/>
<path d="M22.5584 9.29165C20.1416 6.78545 18.9884 6.85685 18.4568 7.28165C18.1268 7.54685 17.0855 11.8669 17.0168 14.7607L17.1881 14.932C17.8309 14.3914 18.653 14.1114 19.4921 14.1471C20.3312 14.1828 21.1265 14.5317 21.7211 15.1249C21.7498 15.1525 21.7726 15.1856 21.7883 15.2222C21.8041 15.2588 21.8123 15.2982 21.8127 15.338C21.813 15.3779 21.8054 15.4174 21.7904 15.4542C21.7753 15.4911 21.753 15.5246 21.7248 15.5528C21.6967 15.5809 21.6632 15.6032 21.6263 15.6183C21.5894 15.6334 21.5499 15.641 21.5101 15.6406C21.4703 15.6403 21.4309 15.632 21.3943 15.6163C21.3577 15.6006 21.3246 15.5777 21.2969 15.5491C20.8146 15.0689 20.1719 14.784 19.4923 14.7492C18.8127 14.7143 18.1442 14.9318 17.6153 15.3601L20.2469 17.9917C20.8373 17.5239 21.5688 17.2701 22.322 17.2717H22.3712C23.2443 17.2825 24.0784 17.6353 24.6944 18.2542C24.7455 18.3113 24.7728 18.3859 24.7706 18.4625C24.7685 18.5391 24.7371 18.612 24.6829 18.6662C24.6287 18.7204 24.5558 18.7518 24.4791 18.754C24.4025 18.7561 24.328 18.7288 24.2708 18.6778C23.8042 18.2067 23.1825 17.921 22.5211 17.8736C21.8598 17.8262 21.2037 18.0204 20.6747 18.4201L21.3581 19.1035L23.3423 21.0877C23.3986 21.1439 23.4301 21.2203 23.4301 21.2999C23.4301 21.3794 23.3984 21.4557 23.3422 21.512C23.2859 21.5683 23.2095 21.5998 23.1299 21.5998C23.0504 21.5998 22.9741 21.5681 22.9178 21.5119L21.1718 19.7644C20.4518 20.8384 20.5748 22.3108 21.5105 23.2465C21.5402 23.2739 21.5641 23.307 21.5807 23.3439C21.5973 23.3808 21.6063 23.4206 21.6071 23.461C21.6079 23.5015 21.6006 23.5417 21.5854 23.5792C21.5703 23.6167 21.5478 23.6507 21.5192 23.6793C21.4905 23.7079 21.4564 23.7304 21.4189 23.7455C21.3814 23.7605 21.3412 23.7678 21.3008 23.767C21.2603 23.7661 21.2205 23.7571 21.1836 23.7404C21.1468 23.7238 21.1137 23.6998 21.0863 23.6701C20.522 23.1064 20.1772 22.36 20.1138 21.565C20.0504 20.7699 20.2726 19.9783 20.7404 19.3324L17.0063 15.6001C17.0047 15.7827 17.0039 15.965 17.0039 16.147C17.0039 16.3966 17.0048 16.6444 17.0066 16.8904C17.0321 20.0134 17.2217 22.7068 17.2217 22.7068L17.444 24.8935C19.7045 27.8953 27.044 26.3016 27.044 26.3016C28.4897 14.9227 22.5584 9.29165 22.5584 9.29165Z" fill="#B22F34"/>
<path d="M14.6785 13.6656C14.5659 13.5981 14.4785 13.4956 14.4297 13.3737C14.3809 13.2519 14.3734 13.1173 14.4084 12.9908C14.4434 12.8643 14.519 12.7527 14.6235 12.6732C14.728 12.5938 14.8556 12.5507 14.9869 12.5508H15.0121C15.091 12.5506 15.1691 12.5659 15.2419 12.5961C15.3148 12.6262 15.381 12.6704 15.4366 12.7263L17.0506 14.3403L17.0467 14.5179C17.0449 14.6113 17.0433 14.7049 17.0419 14.7987L17.0362 15.3003L17.0311 16.0173L14.6785 13.6656Z" fill="#B22F34"/>
<path d="M15.0102 13.7509C14.851 13.7509 14.6984 13.6877 14.5859 13.5752C14.4734 13.4627 14.4102 13.3101 14.4102 13.1509V3.87734C14.4102 3.71821 14.4734 3.5656 14.5859 3.45308C14.6984 3.34056 14.851 3.27734 15.0102 3.27734C15.1693 3.27734 15.3219 3.34056 15.4344 3.45308C15.5469 3.5656 15.6102 3.71821 15.6102 3.87734V13.1509C15.6102 13.3101 15.5469 13.4627 15.4344 13.5752C15.3219 13.6877 15.1693 13.7509 15.0102 13.7509Z" fill="#B22F34"/>
</svg>
