<svg width="30" height="30" viewBox="0 0 30 30" fill="none" xmlns="http://www.w3.org/2000/svg">
<g clip-path="url(#clip0_117_7134)">
<path d="M27.2658 16.3562C27.233 16.2849 27.2198 16.2055 27.2279 16.1273L28.8614 0.193437L24.7598 0.158105L23.8772 0.150547L23.903 16.4104C23.9037 16.5119 23.9383 16.6102 24.002 16.6884C24.0266 16.7186 26.4097 19.6868 25.0076 21.1992C24.6621 21.5712 24.316 21.749 23.9403 21.7402C23.2229 21.7251 22.5653 21.0171 22.3812 20.8014C22.3554 20.7706 22.3371 20.7466 22.3232 20.7283C22.1555 20.5077 21.9569 20.4465 21.6991 20.536C21.6695 20.5461 21.6354 20.5581 21.5799 20.5713C20.8638 20.7415 20.2529 20.7012 19.9452 20.4628C19.7472 20.309 19.6476 20.0562 19.6413 19.6899C19.6079 17.8906 21.2943 17.0515 21.365 17.0175C21.5207 16.943 21.6184 16.7842 21.6159 16.6115L21.346 0.128457L20.4628 0.120898L17.5463 0.0957031L18.004 15.0543C18.0072 15.1571 17.9744 15.2573 17.9114 15.3386C15.9558 17.856 13.3665 20.2668 10.6209 22.1279C7.52653 24.2247 4.35291 25.5499 1.44402 25.961C0.749864 26.0587 0.224103 26.5447 0.0728137 27.2294C-0.0791199 27.9141 0.191993 28.5767 0.779513 28.9587C2.62797 30.159 6.05254 29.9296 8.12418 29.7852C9.13797 29.5078 10.1025 29.1894 11.0349 28.8812C14.7395 27.6587 17.939 26.6028 21.5634 28.9625C21.8603 29.1567 22.1358 29.2632 22.487 29.32C25.9172 29.8792 28.1856 29.47 29.2271 28.1019C30.667 26.2125 30.0252 22.3706 27.2658 16.3562ZM21.7626 21.435C22.1119 21.8297 22.922 22.602 23.9219 22.6228C23.9364 22.6234 23.9509 22.6234 23.9654 22.6234C24.5763 22.6234 25.1424 22.3492 25.6475 21.807C26.1796 22.317 26.8926 23.0893 27.3597 23.9417C28.0117 25.1313 27.9927 26.0864 27.303 26.8619C25.9173 28.419 23.3338 26.72 21.9178 25.5695C21.5799 25.2946 21.3586 25.0872 21.1972 24.9359C20.6185 24.3931 20.4571 24.3823 19.6041 24.5557C19.3626 24.6049 19.0619 24.6661 18.6452 24.7348C15.6796 25.224 10.4115 26.2314 8.45904 27.4822C6.53934 28.7104 3.65506 28.6429 2.58959 28.0597C2.35381 27.9305 2.27061 27.812 2.27061 27.749C2.27061 27.7307 2.3343 27.6348 2.64701 27.5043C3.02652 27.3455 3.60526 27.203 4.27481 27.0385C5.98399 26.6173 8.32481 26.0411 10.4714 24.5167C13.1893 22.5844 17.2223 21.3784 19.1274 20.8841C19.2069 20.9868 19.2989 21.0789 19.4042 21.1602C20.1134 21.7099 21.1757 21.5718 21.7626 21.435ZM9.68963 19.7997C9.23008 18.6077 8.99705 17.3536 8.99705 16.0721C8.99705 11.9358 11.4502 8.20414 15.2467 6.56521C15.4705 6.46865 15.7303 6.57172 15.8269 6.79555C15.9235 7.01932 15.8204 7.27912 15.5966 7.37574C12.1238 8.87492 9.87988 12.2885 9.87988 16.0721C9.87988 17.2445 10.093 18.3918 10.5133 19.4821C10.601 19.7096 10.4877 19.9651 10.2602 20.0528C10.208 20.0729 10.1543 20.0824 10.1015 20.0824C9.92436 20.0824 9.75725 19.975 9.68963 19.7997ZM14.6147 11.0006L16.0514 12.4017C16.226 12.572 16.2296 12.8514 16.0593 13.0259C15.9728 13.1146 15.8581 13.1592 15.7432 13.1592C15.6321 13.1592 15.5209 13.1175 15.4351 13.0338L13.9983 11.6327C13.8238 11.4625 13.8202 11.183 13.9905 11.0085C14.1606 10.8341 14.4401 10.8304 14.6147 11.0006ZM15.421 14.9813C15.447 15.2237 15.2716 15.4413 15.0292 15.4674L13.033 15.6818C13.0171 15.6835 13.0011 15.6844 12.9854 15.6844C12.7628 15.6844 12.5713 15.5165 12.547 15.2901C12.521 15.0477 12.6964 14.8301 12.9388 14.8041L14.9349 14.5896C15.1772 14.5635 15.3949 14.7389 15.421 14.9813ZM15.4714 13.832C15.4124 14.021 15.2382 14.1422 15.0501 14.1422C15.0065 14.1422 14.9624 14.1357 14.9187 14.1221L12.2237 13.2822C11.9909 13.2096 11.8611 12.9621 11.9336 12.7294C12.0061 12.4967 12.2532 12.3668 12.4864 12.4393L15.1813 13.2792C15.4141 13.3518 15.5439 13.5993 15.4714 13.832Z" fill="#B22F34"/>
</g>
<defs>
<clipPath id="clip0_117_7134">
<rect width="30" height="30" fill="white"/>
</clipPath>
</defs>
</svg>
