<svg width="27" height="30" viewBox="0 0 27 30" fill="none" xmlns="http://www.w3.org/2000/svg">
<path d="M20.6731 7.2054V5.26075H21.5571C21.7265 5.25876 21.8919 5.20964 22.035 5.1189C22.178 5.02815 22.293 4.89937 22.3669 4.74698C22.4409 4.59459 22.471 4.42462 22.4538 4.2561C22.4366 4.08758 22.3728 3.92718 22.2696 3.79287L19.5535 0.348225C19.4684 0.239193 19.3595 0.151114 19.235 0.0907511C19.1106 0.0303879 18.974 -0.000653517 18.8357 1.04306e-05C18.6999 0.000730378 18.5661 0.0324788 18.4445 0.0928299C18.3228 0.153181 18.2166 0.240538 18.1339 0.348225L15.4178 3.79287C15.3153 3.92737 15.2521 4.08767 15.2353 4.25594C15.2185 4.4242 15.2487 4.59384 15.3225 4.74597C15.3964 4.8981 15.511 5.02677 15.6536 5.11764C15.7962 5.20852 15.9612 5.25805 16.1303 5.26072H17.0196V6.97498C15.5752 7.2266 14.2289 7.8738 13.1303 8.84465C12.2307 8.04879 11.1614 7.46861 10.0039 7.14825C8.84625 6.82789 7.63083 6.7758 6.45007 6.99593C5.26931 7.21606 4.15431 7.70261 3.18991 8.41857C2.22551 9.13453 1.43713 10.061 0.88474 11.1276C0.332352 12.1941 0.0305153 13.3726 0.00219573 14.5734C-0.0261239 15.7742 0.21982 16.9656 0.721314 18.057C1.22281 19.1484 1.96664 20.111 2.89621 20.8717C3.82578 21.6323 4.91661 22.1709 6.08568 22.4464V23.6304H4.66604C4.4047 23.6349 4.15584 23.7429 3.97406 23.9307C3.79228 24.1186 3.69242 24.3708 3.69639 24.6321V26.4429C3.69389 26.5727 3.71698 26.7017 3.76436 26.8226C3.81174 26.9435 3.88248 27.0538 3.97253 27.1473C4.06258 27.2409 4.17017 27.3157 4.28917 27.3677C4.40816 27.4196 4.53623 27.4476 4.66604 27.45H6.08568V28.9982C6.08171 29.2596 6.18157 29.5118 6.36335 29.6996C6.54513 29.8874 6.79399 29.9954 7.05532 30H8.74818C9.01007 29.9957 9.25961 29.8879 9.44229 29.7002C9.62497 29.5125 9.72595 29.2601 9.72318 28.9982V27.45H11.1321C11.3948 27.4454 11.645 27.3367 11.8278 27.1479C12.0105 26.9591 12.111 26.7056 12.1071 26.4429V24.6321C12.1099 24.3702 12.0089 24.1179 11.8262 23.9302C11.6435 23.7425 11.394 23.6347 11.1321 23.6304H9.72318V22.4464C10.9915 22.1528 12.1663 21.5469 13.141 20.6839C18.1328 25.1818 26.3146 21.4861 26.2606 14.7588C26.2654 13.0663 25.7244 11.4174 24.7179 10.0567C23.7113 8.69605 22.2929 7.69614 20.6731 7.2054ZM18.3642 19.9554C17.0538 19.9587 15.7914 19.4626 14.8339 18.5679C15.4677 17.4001 15.7992 16.0923 15.7983 14.7636C15.7974 13.4349 15.464 12.1276 14.8285 10.9608C15.4409 10.3905 16.1822 9.9767 16.989 9.7547C17.7959 9.5327 18.6445 9.50904 19.4624 9.68575C25.4695 11.1413 24.5579 19.8096 18.3642 19.9554ZM2.71065 14.759C2.71277 13.3829 3.26036 12.0637 4.23342 11.0907C5.20648 10.1176 6.52562 9.57001 7.90172 9.5679C14.7915 9.85119 14.7839 19.6745 7.90169 19.9554C6.52475 19.953 5.20498 19.4045 4.23185 18.4304C3.25871 17.4562 2.71166 16.1359 2.71065 14.759Z" fill="#B22F34"/>
</svg>
