<svg width="30" height="30" viewBox="0 0 30 30" fill="none" xmlns="http://www.w3.org/2000/svg">
<path fill-rule="evenodd" clip-rule="evenodd" d="M4.83148 10.8565C5.8983 10.8565 6.77023 11.7216 6.77023 12.7883C6.77023 13.8622 5.89824 14.727 4.83148 14.727C3.76478 14.727 2.89988 13.8622 2.89988 12.7883C2.89988 11.7215 3.76478 10.8565 4.83148 10.8565ZM9.75412 15.4189C8.68748 15.0224 7.56312 14.936 6.02797 15.4982C5.8765 15.5486 5.76851 15.6711 5.73242 15.837C5.68918 15.9956 5.73969 16.1541 5.84767 16.2694L9.17762 19.7073L13.7904 20.2551C14.1508 20.1471 14.3959 19.8155 14.3959 19.4407C14.3959 19.0732 14.1508 18.7416 13.7904 18.6334C13.7904 18.6334 12.7237 18.41 10.5904 17.9559L9.22801 16.5938L9.75412 15.4189ZM4.50711 2.96438H12.767C12.9615 2.96438 13.1201 3.12299 13.1201 3.31752V8.34124C13.1201 8.52856 12.9615 8.68706 12.767 8.68706H4.50711C4.31258 8.68706 4.15402 8.5285 4.15402 8.34124V3.31752C4.15402 3.12299 4.31258 2.96438 4.50711 2.96438ZM5.33597 5.45813C5.13418 5.45813 4.96853 5.29237 4.96853 5.09069C4.96853 4.88883 5.13418 4.72301 5.33597 4.72301H5.90545C6.10724 4.72301 6.27289 4.88883 6.27289 5.09069C6.27289 5.29243 6.10719 5.45813 5.90545 5.45813H5.33597ZM5.33597 4.57167C5.13418 4.57167 4.96853 4.4059 4.96853 4.20405C4.96853 4.00237 5.13418 3.8437 5.33597 3.8437H5.90545C6.10724 3.8437 6.27289 4.00237 6.27289 4.20405C6.27289 4.40596 6.10719 4.57167 5.90545 4.57167H5.33597ZM11.8948 5.3212C12.0966 5.3212 12.2623 5.48708 12.2623 5.68875C12.2623 5.89061 12.0966 6.05637 11.8948 6.05637H11.4407L10.7417 7.3104C10.6479 7.49069 10.4244 7.54829 10.2443 7.45454C10.1722 7.41135 10.1146 7.34643 10.0858 7.26721L9.58842 6.00581H9.36494C9.2208 6.00581 9.09822 5.92653 9.04068 5.80407L8.71631 5.22739L8.30539 5.84004C8.24058 5.94821 8.12527 6.00581 8.00269 6.00581H7.26758C7.06572 6.00581 6.90722 5.84725 6.90722 5.64551C6.90722 5.4436 7.06578 5.27795 7.26758 5.27795H7.80822L8.42797 4.31936C8.46406 4.27612 8.5073 4.23276 8.55775 4.20399C8.73078 4.10303 8.95414 4.16801 9.0551 4.34098L9.58121 5.27795H9.84072C9.98492 5.27795 10.1218 5.3645 10.1795 5.5087L10.4822 6.27979L10.8931 5.53752C10.9507 5.41501 11.0804 5.32126 11.2317 5.32126L11.8948 5.3212ZM16.2554 6.95022L23.5998 11.1882C23.8233 11.3179 23.8953 11.599 23.7727 11.8225L23.5493 12.2044C23.4269 12.4278 23.1386 12.5 22.915 12.3774L15.5705 8.13217C15.3544 8.00239 15.2751 7.72137 15.4048 7.49801L15.621 7.11598C15.7509 6.89971 16.0391 6.82032 16.2554 6.95022ZM27.0235 3.6995C27.8523 3.6995 28.5153 4.36981 28.5153 5.19141C28.5153 6.0204 27.8523 6.6835 27.0235 6.6835C26.2017 6.6835 25.5314 6.0204 25.5314 5.19141C25.5314 4.36981 26.2017 3.6995 27.0235 3.6995ZM20.9114 7.22403C21.0051 7.11598 21.1277 7.02944 21.2646 6.97905L24.8466 5.65999C24.9836 6.28711 25.38 6.82032 25.9278 7.13034L22.3024 8.4637C22.6268 8.92495 22.8576 9.44391 22.98 9.98444L17.6104 6.88524C18.6771 6.55366 19.8663 6.6402 20.9114 7.22403ZM22.4754 0.607563C22.8141 0.268833 23.3763 0.268833 23.7151 0.607563L26.2234 3.11579C25.6539 3.33206 25.2 3.77883 24.9692 4.33389L22.4755 1.84729C22.1366 1.50129 22.1366 0.946353 22.4754 0.607563ZM11.1164 29.6465H20.5006V28.0104C20.5006 27.6861 20.2338 27.4194 19.9096 27.4194H17.5384V25.3508H18.5834C18.9149 25.3508 19.1816 25.0841 19.1816 24.7598V24.7021H17.5384V24.6949H14.0787V24.7021H12.4426V24.7598C12.4426 25.0841 12.7092 25.3508 13.0337 25.3508H14.0787V27.4194H11.7075C11.383 27.4194 11.1164 27.6861 11.1164 28.0104V29.6465ZM16.8104 25.3509V27.4195H14.8067V25.3509H16.8104ZM26.2162 21.848V21.1489H17.351C17.1491 21.1489 16.9833 20.9831 16.9833 20.7813C16.9833 20.5795 17.1491 20.4138 17.351 20.4138H25.6179C25.1567 19.52 24.9116 18.1289 24.7531 17.6317C24.443 16.6443 23.9963 16.2911 23.1673 16.7739C22.8069 16.9831 22.5187 17.2353 22.2808 17.5811C22.1944 17.7109 22.0863 17.9343 21.9854 18.0353C21.8557 18.1866 20.9836 18.0497 20.8251 18.0208C20.198 17.92 19.5637 17.8478 18.9294 17.783C17.3654 17.6173 15.5059 17.5307 14.0499 16.8964C13.1346 16.4928 12.3417 16.0315 11.5922 15.628C11.2318 15.4333 10.8426 15.4622 10.4318 15.7072L10.1002 16.4351L10.9579 17.2856C11.9527 17.4947 12.9472 17.7036 13.9418 17.9128L13.9779 17.92L14.0067 17.9272C14.6698 18.1363 15.1239 18.7488 15.1239 19.4408C15.1239 20.1398 14.6698 20.7525 14.0067 20.9544L13.8554 21.0048L9.78318 20.5218V21.8192C15.2607 21.8192 20.7312 21.8408 26.2162 21.848ZM9.04789 21.012L3.34678 15.1162C2.93597 14.6837 2.2441 14.6766 1.81156 15.0874C1.38635 15.5054 1.37187 16.1973 1.78994 16.6225L6.81348 21.8191H9.04789V21.012ZM4.25486 22.5543H27.3693V23.9671H4.25486V22.5543Z" fill="#B22F34"/>
</svg>
