<svg width="30" height="30" viewBox="0 0 30 30" fill="none" xmlns="http://www.w3.org/2000/svg">
<g clip-path="url(#clip0_117_7150)">
<path d="M26.5333 1.24496C24.8733 -0.414998 21.9179 -0.414998 20.2597 1.24502C19.4297 2.07412 18.9722 3.17791 18.9722 4.35207C18.9722 5.52623 19.4297 6.6725 20.2597 7.5016C20.2983 7.54022 20.3361 7.58059 20.373 7.6209C20.0007 7.92518 19.7288 8.33428 19.5643 8.78908H18.5148C17.0608 8.78908 15.878 9.97186 15.878 11.4258V17.6543C15.5885 17.6184 15.3001 17.5781 14.9991 17.5781C14.6982 17.5781 14.4098 17.6184 14.1202 17.6543V11.4258C14.1202 9.97186 12.9374 8.78908 11.4835 8.78908H10.434C10.2696 8.33428 9.99757 7.92518 9.62532 7.6209C9.66223 7.58059 9.69997 7.5411 9.73864 7.5016C10.5686 6.6725 11.0261 5.52623 11.0261 4.35207C11.0261 3.17791 10.5686 2.07412 9.73952 1.24502C8.07956 -0.414939 5.12415 -0.414939 3.46594 1.24502C-1.15517 5.86614 -1.15517 13.4274 3.46507 18.0485C4.29493 18.8785 5.39872 19.336 6.57288 19.336C7.74704 19.336 8.90942 18.8785 9.73852 18.0485C10.5685 17.2194 11.026 16.1156 11.026 14.9414C11.026 13.7673 10.5685 12.6635 9.73852 11.8344C9.69991 11.7958 9.66212 11.7554 9.6252 11.7151C9.99751 11.4108 10.2694 11.0017 10.4339 10.5469H11.4835C11.9684 10.5469 12.3624 10.9409 12.3624 11.4258V18.107C10.2914 18.9567 8.84678 20.7556 8.84678 22.8516C8.84678 24.8935 10.2347 26.7354 12.3624 27.5989V29.1211C12.3624 29.6069 12.7555 30 13.2413 30H16.7569C17.2427 30 17.6358 29.6069 17.6358 29.1211V27.5989C19.7636 26.7355 21.1515 24.8935 21.1515 22.8516C21.1515 20.7556 19.7068 18.9567 17.6358 18.107V11.4258C17.6358 10.9409 18.0298 10.5469 18.5148 10.5469H19.5642C19.7287 11.0017 20.0007 11.4108 20.3729 11.7151C20.336 11.7554 20.2983 11.7949 20.2596 11.8344C19.4296 12.6635 18.9721 13.7673 18.9721 14.9414C18.9721 16.1156 19.4296 17.2194 20.2587 18.0485C21.0888 18.8785 22.2512 19.336 23.4254 19.336C24.5995 19.336 25.7033 18.8785 26.5324 18.0485C31.1535 13.4274 31.1535 5.86608 26.5333 1.24496Z" fill="#B22F34"/>
</g>
<defs>
<clipPath id="clip0_117_7150">
<rect width="30" height="30" fill="white"/>
</clipPath>
</defs>
</svg>
