<svg width="20" height="20" viewBox="0 0 20 20" fill="none" xmlns="http://www.w3.org/2000/svg">
<path fill-rule="evenodd" clip-rule="evenodd" d="M12.9265 15.2992L14.1049 16.4776C14.2675 16.6402 14.5314 16.6402 14.694 16.4776L17.0507 14.1209C17.2133 13.9583 17.2133 13.6943 17.0507 13.5317C16.8881 13.3691 16.6242 13.3691 16.4615 13.5317L14.3995 15.5938L13.5157 14.7101C13.3531 14.5474 13.0892 14.5474 12.9265 14.7101C12.7639 14.8727 12.7639 15.1366 12.9265 15.2992Z" fill="#626262"/>
<path fill-rule="evenodd" clip-rule="evenodd" d="M5.41699 8.0001C5.41699 7.75718 5.32033 7.52385 5.14866 7.35177C4.97658 7.1801 4.74324 7.08344 4.50033 7.08344H3.83366C3.59074 7.08344 3.35741 7.1801 3.18532 7.35177C3.01366 7.52385 2.91699 7.75718 2.91699 8.0001V8.66677C2.91699 8.90969 3.01366 9.14302 3.18532 9.3151C3.35741 9.48677 3.59074 9.58344 3.83366 9.58344H4.50033C4.74324 9.58344 4.97658 9.48677 5.14866 9.3151C5.32033 9.14302 5.41699 8.90969 5.41699 8.66677V8.0001ZM4.58366 8.0001V8.66677C4.58366 8.68885 4.57491 8.7101 4.55907 8.72552C4.54366 8.74135 4.52241 8.7501 4.50033 8.7501H3.83366C3.81157 8.7501 3.79033 8.74135 3.77491 8.72552C3.75908 8.7101 3.75033 8.68885 3.75033 8.66677V8.0001C3.75033 7.97802 3.75908 7.95677 3.77491 7.94135C3.79033 7.92552 3.81157 7.91677 3.83366 7.91677H4.50033C4.52241 7.91677 4.54366 7.92552 4.55907 7.94135C4.57491 7.95677 4.58366 7.97802 4.58366 8.0001Z" fill="#626262"/>
<path fill-rule="evenodd" clip-rule="evenodd" d="M5.41699 11.3334C5.41699 11.0905 5.32033 10.8572 5.14866 10.6851C4.97658 10.5134 4.74324 10.4167 4.50033 10.4167H3.83366C3.59074 10.4167 3.35741 10.5134 3.18532 10.6851C3.01366 10.8572 2.91699 11.0905 2.91699 11.3334V12.0001C2.91699 12.243 3.01366 12.4763 3.18532 12.6484C3.35741 12.8201 3.59074 12.9167 3.83366 12.9167H4.50033C4.74324 12.9167 4.97658 12.8201 5.14866 12.6484C5.32033 12.4763 5.41699 12.243 5.41699 12.0001V11.3334ZM4.58366 11.3334V12.0001C4.58366 12.0222 4.57491 12.0434 4.55907 12.0588C4.54366 12.0747 4.52241 12.0834 4.50033 12.0834H3.83366C3.81157 12.0834 3.79033 12.0747 3.77491 12.0588C3.75908 12.0434 3.75033 12.0222 3.75033 12.0001V11.3334C3.75033 11.3113 3.75908 11.2901 3.77491 11.2747C3.79033 11.2588 3.81157 11.2501 3.83366 11.2501H4.50033C4.52241 11.2501 4.54366 11.2588 4.55907 11.2747C4.57491 11.2901 4.58366 11.3113 4.58366 11.3334Z" fill="#626262"/>
<path fill-rule="evenodd" clip-rule="evenodd" d="M5.41699 14.6667C5.41699 14.4238 5.32033 14.1905 5.14866 14.0184C4.97658 13.8467 4.74324 13.7501 4.50033 13.7501H3.83366C3.59074 13.7501 3.35741 13.8467 3.18532 14.0184C3.01366 14.1905 2.91699 14.4238 2.91699 14.6667V15.3334C2.91699 15.5763 3.01366 15.8096 3.18532 15.9817C3.35741 16.1534 3.59074 16.2501 3.83366 16.2501H4.50033C4.74324 16.2501 4.97658 16.1534 5.14866 15.9817C5.32033 15.8096 5.41699 15.5763 5.41699 15.3334V14.6667ZM4.58366 14.6667V15.3334C4.58366 15.3555 4.57491 15.3767 4.55907 15.3921C4.54366 15.408 4.52241 15.4167 4.50033 15.4167H3.83366C3.81157 15.4167 3.79033 15.408 3.77491 15.3921C3.75908 15.3767 3.75033 15.3555 3.75033 15.3334V14.6667C3.75033 14.6446 3.75908 14.6234 3.77491 14.608C3.79033 14.5921 3.81157 14.5834 3.83366 14.5834H4.50033C4.52241 14.5834 4.54366 14.5921 4.55907 14.608C4.57491 14.6234 4.58366 14.6446 4.58366 14.6667Z" fill="#626262"/>
<path fill-rule="evenodd" clip-rule="evenodd" d="M8.75037 8.0001C8.75037 7.75718 8.6537 7.52385 8.48203 7.35177C8.30995 7.1801 8.07662 7.08344 7.8337 7.08344H7.16703C6.92411 7.08344 6.69078 7.1801 6.5187 7.35177C6.34703 7.52385 6.25037 7.75718 6.25037 8.0001V8.66677C6.25037 8.90969 6.34703 9.14302 6.5187 9.3151C6.69078 9.48677 6.92411 9.58344 7.16703 9.58344H7.8337C8.07662 9.58344 8.30995 9.48677 8.48203 9.3151C8.6537 9.14302 8.75037 8.90969 8.75037 8.66677V8.0001ZM7.91703 8.0001V8.66677C7.91703 8.68885 7.90828 8.7101 7.89245 8.72552C7.87703 8.74135 7.85578 8.7501 7.8337 8.7501H7.16703C7.14495 8.7501 7.1237 8.74135 7.10829 8.72552C7.09245 8.7101 7.0837 8.68885 7.0837 8.66677V8.0001C7.0837 7.97802 7.09245 7.95677 7.10829 7.94135C7.1237 7.92552 7.14495 7.91677 7.16703 7.91677H7.8337C7.85578 7.91677 7.87703 7.92552 7.89245 7.94135C7.90828 7.95677 7.91703 7.97802 7.91703 8.0001Z" fill="#626262"/>
<path fill-rule="evenodd" clip-rule="evenodd" d="M8.75037 11.3334C8.75037 11.0905 8.6537 10.8572 8.48203 10.6851C8.30995 10.5134 8.07662 10.4167 7.8337 10.4167H7.16703C6.92411 10.4167 6.69078 10.5134 6.5187 10.6851C6.34703 10.8572 6.25037 11.0905 6.25037 11.3334V12.0001C6.25037 12.243 6.34703 12.4763 6.5187 12.6484C6.69078 12.8201 6.92411 12.9167 7.16703 12.9167H7.8337C8.07662 12.9167 8.30995 12.8201 8.48203 12.6484C8.6537 12.4763 8.75037 12.243 8.75037 12.0001V11.3334ZM7.91703 11.3334V12.0001C7.91703 12.0222 7.90828 12.0434 7.89245 12.0588C7.87703 12.0747 7.85578 12.0834 7.8337 12.0834H7.16703C7.14495 12.0834 7.1237 12.0747 7.10829 12.0588C7.09245 12.0434 7.0837 12.0222 7.0837 12.0001V11.3334C7.0837 11.3113 7.09245 11.2901 7.10829 11.2747C7.1237 11.2588 7.14495 11.2501 7.16703 11.2501H7.8337C7.85578 11.2501 7.87703 11.2588 7.89245 11.2747C7.90828 11.2901 7.91703 11.3113 7.91703 11.3334Z" fill="#626262"/>
<path fill-rule="evenodd" clip-rule="evenodd" d="M8.75037 14.6667C8.75037 14.4238 8.6537 14.1905 8.48203 14.0184C8.30995 13.8467 8.07662 13.7501 7.8337 13.7501H7.16703C6.92411 13.7501 6.69078 13.8467 6.5187 14.0184C6.34703 14.1905 6.25037 14.4238 6.25037 14.6667V15.3334C6.25037 15.5763 6.34703 15.8096 6.5187 15.9817C6.69078 16.1534 6.92411 16.2501 7.16703 16.2501H7.8337C8.07662 16.2501 8.30995 16.1534 8.48203 15.9817C8.6537 15.8096 8.75037 15.5763 8.75037 15.3334V14.6667ZM7.91703 14.6667V15.3334C7.91703 15.3555 7.90828 15.3767 7.89245 15.3921C7.87703 15.408 7.85578 15.4167 7.8337 15.4167H7.16703C7.14495 15.4167 7.1237 15.408 7.10829 15.3921C7.09245 15.3767 7.0837 15.3555 7.0837 15.3334V14.6667C7.0837 14.6446 7.09245 14.6234 7.10829 14.608C7.1237 14.5921 7.14495 14.5834 7.16703 14.5834H7.8337C7.85578 14.5834 7.87703 14.5921 7.89245 14.608C7.90828 14.6234 7.91703 14.6446 7.91703 14.6667Z" fill="#626262"/>
<path fill-rule="evenodd" clip-rule="evenodd" d="M12.0836 8.0001C12.0836 7.75718 11.987 7.52385 11.8153 7.35177C11.6432 7.1801 11.4099 7.08344 11.167 7.08344H10.5003C10.2574 7.08344 10.024 7.1801 9.85195 7.35177C9.68028 7.52385 9.58362 7.75718 9.58362 8.0001V8.66677C9.58362 8.90969 9.68028 9.14302 9.85195 9.3151C10.024 9.48677 10.2574 9.58344 10.5003 9.58344H11.167C11.4099 9.58344 11.6432 9.48677 11.8153 9.3151C11.987 9.14302 12.0836 8.90969 12.0836 8.66677V8.0001ZM11.2503 8.0001V8.66677C11.2503 8.68885 11.2415 8.7101 11.2257 8.72552C11.2103 8.74135 11.189 8.7501 11.167 8.7501H10.5003C10.4782 8.7501 10.457 8.74135 10.4415 8.72552C10.4257 8.7101 10.417 8.68885 10.417 8.66677V8.0001C10.417 7.97802 10.4257 7.95677 10.4415 7.94135C10.457 7.92552 10.4782 7.91677 10.5003 7.91677H11.167C11.189 7.91677 11.2103 7.92552 11.2257 7.94135C11.2415 7.95677 11.2503 7.97802 11.2503 8.0001Z" fill="#626262"/>
<path fill-rule="evenodd" clip-rule="evenodd" d="M15.417 8.0001C15.417 7.75718 15.3203 7.52385 15.1487 7.35177C14.9766 7.1801 14.7432 7.08344 14.5003 7.08344H13.8337C13.5907 7.08344 13.3574 7.1801 13.1853 7.35177C13.0137 7.52385 12.917 7.75718 12.917 8.0001V8.66677C12.917 8.90969 13.0137 9.14302 13.1853 9.3151C13.3574 9.48677 13.5907 9.58344 13.8337 9.58344H14.5003C14.7432 9.58344 14.9766 9.48677 15.1487 9.3151C15.3203 9.14302 15.417 8.90969 15.417 8.66677V8.0001ZM14.5837 8.0001V8.66677C14.5837 8.68885 14.5749 8.7101 14.5591 8.72552C14.5437 8.74135 14.5224 8.7501 14.5003 8.7501H13.8337C13.8116 8.7501 13.7903 8.74135 13.7749 8.72552C13.7591 8.7101 13.7503 8.68885 13.7503 8.66677V8.0001C13.7503 7.97802 13.7591 7.95677 13.7749 7.94135C13.7903 7.92552 13.8116 7.91677 13.8337 7.91677H14.5003C14.5224 7.91677 14.5437 7.92552 14.5591 7.94135C14.5749 7.95677 14.5837 7.97802 14.5837 8.0001Z" fill="#626262"/>
<path fill-rule="evenodd" clip-rule="evenodd" d="M11.4657 17.9167H2.50033C1.94783 17.9167 1.41783 17.6972 1.02699 17.3067C0.636577 16.9159 0.416992 16.3859 0.416992 15.8334V4.16675C0.416992 3.01633 1.34991 2.08341 2.50033 2.08341H3.75033V1.66675C3.75033 0.976331 4.30991 0.416748 5.00033 0.416748C5.69074 0.416748 6.25033 0.976331 6.25033 1.66675V2.08341H12.0837V1.66675C12.0837 0.976331 12.6432 0.416748 13.3337 0.416748C14.0241 0.416748 14.5837 0.976331 14.5837 1.66675V2.08341H15.8337C16.9841 2.08341 17.917 3.01633 17.917 4.16675V11.4655C18.9349 12.3067 19.5837 13.578 19.5837 15.0001C19.5837 17.5297 17.5299 19.5834 15.0003 19.5834C13.5782 19.5834 12.307 18.9347 11.4657 17.9167ZM15.0003 11.2501C17.0699 11.2501 18.7503 12.9305 18.7503 15.0001C18.7503 17.0697 17.0699 18.7501 15.0003 18.7501C12.9307 18.7501 11.2503 17.0697 11.2503 15.0001C11.2503 12.9305 12.9307 11.2501 15.0003 11.2501ZM17.0837 10.9172V6.25008H1.25033V15.8334C1.25033 16.1651 1.38199 16.483 1.61657 16.7172C1.85074 16.9517 2.16866 17.0834 2.50033 17.0834H10.9174C10.5974 16.4584 10.417 15.7501 10.417 15.0001C10.417 12.4705 12.4707 10.4167 15.0003 10.4167C15.7503 10.4167 16.4587 10.5972 17.0837 10.9172ZM14.5837 2.91675V3.33341C14.5837 4.02383 14.0241 4.58342 13.3337 4.58342C12.6432 4.58342 12.0837 4.02383 12.0837 3.33341V2.91675H6.25033V3.33341C6.25033 4.02383 5.69074 4.58342 5.00033 4.58342C4.30991 4.58342 3.75033 4.02383 3.75033 3.33341V2.91675H2.50033C1.80991 2.91675 1.25033 3.47633 1.25033 4.16675V5.41675H17.0837V4.16675C17.0837 3.47633 16.5241 2.91675 15.8337 2.91675H14.5837ZM13.7503 1.66675V3.33341C13.7503 3.56341 13.5637 3.75008 13.3337 3.75008C13.1037 3.75008 12.917 3.56341 12.917 3.33341V1.66675C12.917 1.43675 13.1037 1.25008 13.3337 1.25008C13.5637 1.25008 13.7503 1.43675 13.7503 1.66675ZM5.41699 1.66675V3.33341C5.41699 3.56341 5.23033 3.75008 5.00033 3.75008C4.77033 3.75008 4.58366 3.56341 4.58366 3.33341V1.66675C4.58366 1.43675 4.77033 1.25008 5.00033 1.25008C5.23033 1.25008 5.41699 1.43675 5.41699 1.66675Z" fill="#626262"/>
</svg>
