<svg width="15" height="15" viewBox="0 0 15 15" fill="none" xmlns="http://www.w3.org/2000/svg">
<path d="M14.9789 8.34917C14.9789 8.3491 14.9789 8.34906 14.9789 8.34899L12.1468 1.23792C12.0867 1.08683 11.9154 1.01307 11.7644 1.07318C11.7642 1.07321 11.7641 1.07325 11.764 1.07332L0.274726 5.64826C0.227871 5.6685 0.187236 5.70082 0.156944 5.74189C0.0613937 5.79154 0.00103059 5.88982 0 5.99748V13.6533C0 13.8159 0.131842 13.9477 0.294454 13.9477H12.6615C12.8241 13.9477 12.956 13.8159 12.956 13.6533V9.47203L14.8146 8.73178C14.9656 8.67152 15.0392 8.50023 14.9789 8.34917ZM12.3671 13.3588H0.588908V6.29193H12.3671V13.3588ZM4.91296 5.7045L9.8433 3.7399C10.2833 4.20241 10.893 4.46529 11.5314 4.46779L12.0231 5.7045H4.91296ZM12.956 8.83955V5.99748C12.956 5.83487 12.8241 5.70302 12.6615 5.70302H12.6568L12.0329 4.13594C12.0259 4.12287 12.0179 4.11043 12.0087 4.09884C11.9771 3.95702 11.8458 3.86026 11.701 3.87211C11.107 3.92625 10.526 3.67604 10.1572 3.20723C10.0654 3.09398 9.90414 3.06582 9.77941 3.14127C9.76542 3.14293 9.75154 3.14551 9.73789 3.14893L3.71866 5.54579C3.64582 5.57435 3.58755 5.63099 3.557 5.70302H1.72903L11.7087 1.72937L14.3231 8.29422L12.956 8.83955Z" fill="black"/>
<path d="M1.38797 11.371C1.95966 11.54 2.40701 11.9868 2.57669 12.5582C2.6139 12.683 2.72862 12.7684 2.85877 12.7685C2.87405 12.7675 2.88921 12.7652 2.90412 12.7617C2.91733 12.7654 2.93084 12.7682 2.94446 12.7699H10.0114C10.0235 12.7684 10.0355 12.7659 10.0473 12.7626C10.1944 12.7984 10.3427 12.7081 10.3785 12.561C10.3786 12.5605 10.3787 12.56 10.3788 12.5594C10.5481 11.9874 10.9955 11.5399 11.5675 11.3707C11.7063 11.3283 11.7925 11.19 11.7695 11.0468C11.7735 11.0325 11.7763 11.0179 11.7781 11.0032V8.64758C11.7763 8.63282 11.7734 8.61825 11.7692 8.604C11.7923 8.46072 11.7061 8.3224 11.5672 8.2801C10.9952 8.1109 10.5479 7.6633 10.3791 7.0911C10.3365 6.95142 10.1969 6.865 10.0529 6.8891C10.0393 6.88531 10.0254 6.88255 10.0114 6.88086H2.94446C2.92963 6.88263 2.91494 6.88557 2.90058 6.88969C2.75737 6.86687 2.6192 6.95304 2.57669 7.09169C2.40734 7.66363 1.95995 8.1109 1.38797 8.2801C1.24925 8.32251 1.16305 8.46075 1.18598 8.604C1.18215 8.61832 1.17939 8.63286 1.17773 8.64758V11.0032C1.17943 11.0171 1.18219 11.0307 1.18598 11.0441C1.16183 11.1883 1.24822 11.3281 1.38797 11.371ZM1.76664 8.76713C2.35791 8.52965 2.82653 8.06103 3.06401 7.46977H9.89151C10.1291 8.06103 10.5978 8.52965 11.1892 8.76713V10.8837C10.5981 11.1214 10.1295 11.59 9.89181 12.181H3.06401C2.82627 11.59 2.35772 11.1214 1.76664 10.8837V8.76713Z" fill="black"/>
<path d="M6.47815 11.5921C7.4539 11.5921 8.24487 10.8011 8.24487 9.82538C8.24487 8.84963 7.4539 8.05865 6.47815 8.05865C5.5024 8.05865 4.71143 8.84963 4.71143 9.82538C4.71238 10.8007 5.50281 11.5911 6.47815 11.5921ZM6.47815 8.64756C7.12864 8.64756 7.65597 9.17489 7.65597 9.82538C7.65597 10.4759 7.12864 11.0032 6.47815 11.0032C5.82766 11.0032 5.30033 10.4759 5.30033 9.82538C5.30033 9.17489 5.82766 8.64756 6.47815 8.64756Z" fill="black"/>
<path d="M3.23904 10.267C3.48296 10.267 3.68073 10.0693 3.68073 9.82535C3.68073 9.58143 3.48296 9.38367 3.23904 9.38367C2.99513 9.38367 2.79736 9.58143 2.79736 9.82535C2.79736 10.0693 2.99513 10.267 3.23904 10.267ZM3.23904 9.67812C3.32035 9.67812 3.38627 9.74404 3.38627 9.82535C3.38627 9.90665 3.32035 9.97257 3.23904 9.97257C3.15774 9.97257 3.09182 9.90665 3.09182 9.82535C3.09182 9.74404 3.15774 9.67812 3.23904 9.67812Z" fill="black"/>
<path d="M9.71707 10.267C9.96099 10.267 10.1588 10.0693 10.1588 9.82535C10.1588 9.58143 9.96099 9.38367 9.71707 9.38367C9.47315 9.38367 9.27539 9.58143 9.27539 9.82535C9.27539 10.0693 9.47315 10.267 9.71707 10.267ZM9.71707 9.67812C9.79838 9.67812 9.8643 9.74404 9.8643 9.82535C9.8643 9.90665 9.79838 9.97257 9.71707 9.97257C9.63577 9.97257 9.56984 9.90665 9.56984 9.82535C9.56984 9.74404 9.63577 9.67812 9.71707 9.67812Z" fill="black"/>
</svg>
