<svg width="19" height="19" viewBox="0 0 19 19" fill="none" xmlns="http://www.w3.org/2000/svg">
<path d="M18.977 10.5915C18.8366 9.61881 18.0725 8.85466 17.0998 8.71426V8.13857C17.0998 6.5502 15.8923 5.25695 14.4081 5.25695C12.9667 5.25695 11.7599 6.51093 11.7165 8.05244H11.7349L11.7165 8.05561V14.2961C11.7165 16.291 10.225 17.9111 8.39155 17.9111C6.55807 17.9111 5.06659 16.2888 5.06659 14.2961V13.7555C5.52575 13.7555 6.01658 13.4227 6.01658 12.4889V11.6925C8.04892 11.1728 9.49986 9.4277 9.49986 7.4492V6.78896H8.86654L8.85324 2.6676C8.84865 1.90473 8.30122 1.25335 7.55049 1.11754C7.38856 0.621452 6.8551 0.350548 6.35897 0.512521C5.86288 0.674454 5.59198 1.20791 5.75395 1.70404C5.91588 2.20013 6.44934 2.47104 6.94547 2.30906C7.21111 2.22234 7.42474 2.02248 7.52896 1.76322C7.93464 1.87864 8.21568 2.24771 8.21896 2.6695L8.23321 6.78896H7.59989V7.45838C7.57464 8.55985 6.83618 9.51704 5.77718 9.821C5.21056 10.0008 4.60217 10.0008 4.03554 9.821C2.97777 9.51601 2.24098 8.55898 2.21663 7.45838V6.78896H1.26665V2.67235C1.26847 2.24435 1.55631 1.87037 1.96964 1.7591C2.16237 2.24973 2.71633 2.49118 3.20696 2.29846C3.69758 2.10573 3.93904 1.55173 3.74631 1.06114C3.55358 0.570549 2.99958 0.329055 2.50899 0.521783C2.24316 0.626242 2.03804 0.844224 1.95001 1.11596C1.19108 1.24563 0.635422 1.90243 0.633324 2.67235V6.78896H0V7.44762C0 9.42834 1.4519 11.1741 3.48328 11.6925V12.4889C3.48328 13.4227 3.97411 13.7555 4.43327 13.7555V14.2961C4.43327 16.6394 6.20879 18.5444 8.39155 18.5444C10.5743 18.5444 12.3498 16.6371 12.3498 14.2961V8.07081C12.3815 6.86908 13.3055 5.89122 14.4081 5.89122C15.543 5.89122 16.4664 6.89948 16.4664 8.13952V8.71426C15.2548 8.88914 14.4143 10.0132 14.5892 11.2248C14.7641 12.4365 15.8881 13.277 17.0998 13.1021C18.3114 12.9272 19.1519 11.8031 18.977 10.5915ZM6.6499 1.72237C6.47503 1.72237 6.33324 1.58058 6.33324 1.40571C6.33324 1.23083 6.47503 1.08904 6.6499 1.08904C6.82478 1.08904 6.96657 1.23083 6.96657 1.40571C6.96657 1.58058 6.82478 1.72237 6.6499 1.72237ZM2.84996 1.08904C3.02484 1.08904 3.16662 1.23083 3.16662 1.40571C3.16662 1.58058 3.02484 1.72237 2.84996 1.72237C2.67508 1.72237 2.5333 1.58058 2.5333 1.40571C2.5333 1.23083 2.67508 1.08904 2.84996 1.08904ZM0.633324 7.44762V7.42228H1.58331V7.45838C1.60706 8.83472 2.52273 10.0359 3.84364 10.4233C4.53583 10.6425 5.2788 10.6425 5.97098 10.4233C7.29253 10.0364 8.20903 8.83519 8.23321 7.45838V7.42228H8.86654V7.44762C8.86654 9.20921 7.50869 10.7593 5.63658 11.1342C5.19698 11.2222 4.74669 11.2443 4.30059 11.1997C4.15374 11.1855 4.00775 11.1634 3.86328 11.1336C1.99117 10.7593 0.633324 9.20921 0.633324 7.44762ZM4.43327 13.1222C4.14827 13.1222 4.11661 12.6789 4.11661 12.4889V11.8169C4.14194 11.8201 4.16791 11.8214 4.19356 11.8239C4.22522 11.8274 4.25689 11.8299 4.28855 11.8328C4.43834 11.8461 4.58938 11.8549 4.7417 11.8552H4.75753C4.90953 11.8552 5.06026 11.8461 5.20909 11.8328C5.24076 11.8299 5.27432 11.8274 5.30694 11.8239C5.33196 11.821 5.35792 11.8201 5.38294 11.8169V12.4889C5.38294 12.6789 5.35127 13.1222 5.06628 13.1222H4.43327ZM16.7831 12.4889C15.9087 12.4889 15.1998 11.78 15.1998 10.9056C15.1998 10.0311 15.9087 9.32226 16.7831 9.32226C17.6575 9.32226 18.3664 10.0311 18.3664 10.9056C18.3654 11.7796 17.6571 12.4878 16.7831 12.4889Z" fill="#A32C2C"/>
</svg>
