<svg width="12" height="12" viewBox="0 0 12 12" fill="none" xmlns="http://www.w3.org/2000/svg">
<path fill-rule="evenodd" clip-rule="evenodd" d="M9.86719 4.96875H10.9453C11.5269 4.96875 12 5.44188 12 6.02344V11.6484C12 11.8426 11.8426 12 11.6484 12H9.51562H7.40625H4.59375H2.48438H0.351562C0.157406 12 0 11.8426 0 11.6484V6.02344C0 5.44188 0.473133 4.96875 1.05469 4.96875H2.13281V2.46094C2.13281 1.87938 2.60595 1.40625 3.1875 1.40625H3.53906V0.351562C3.53906 0.157406 3.69647 0 3.89062 0H8.10938C8.30353 0 8.46094 0.157406 8.46094 0.351562V1.40625H8.8125C9.39405 1.40625 9.86719 1.87938 9.86719 2.46094V4.96875ZM0.703125 11.2969H2.13281V9.89062H0.703125V11.2969ZM2.13281 9.1875H0.703125V8.48438H2.13281V9.1875ZM0.703125 7.78125H2.13281V7.07812H0.703125V7.78125ZM2.13281 6.375H0.703125V6.02344C0.703125 5.82959 0.860836 5.67188 1.05469 5.67188H2.13281V6.375ZM7.75781 0.703125H4.24219V4.26562H7.75781V0.703125ZM6.35156 7.07812V6.375H7.75781V7.07812H6.35156ZM7.75781 8.48438V7.78125H6.35156V8.48438H7.75781ZM6.35156 5.67188V4.96875H7.75781V5.67188H6.35156ZM5.64844 4.96875H4.24219V5.67188H5.64844V4.96875ZM4.24219 6.375H5.64844V7.07812H4.24219V6.375ZM5.64844 7.78125H4.24219V8.48438H5.64844V7.78125ZM7.05469 11.2969H4.94531V10.5938H7.05469V11.2969ZM7.75781 11.2969H9.16406V2.46094C9.16406 2.26709 9.00635 2.10938 8.8125 2.10938H8.46094V8.83594C8.46094 9.03009 8.30353 9.1875 8.10938 9.1875H3.89062C3.69647 9.1875 3.53906 9.03009 3.53906 8.83594V2.10938H3.1875C2.99365 2.10938 2.83594 2.26709 2.83594 2.46094V11.2969H4.24219V10.2422C4.24219 10.048 4.39959 9.89062 4.59375 9.89062H7.40625C7.60041 9.89062 7.75781 10.048 7.75781 10.2422V11.2969ZM11.2969 11.2969H9.86719V9.89062H11.2969V11.2969ZM9.86719 9.1875H11.2969V8.48438H9.86719V9.1875ZM11.2969 7.78125H9.86719V7.07812H11.2969V7.78125ZM9.86719 6.375H11.2969V6.02344C11.2969 5.82959 11.1392 5.67188 10.9453 5.67188H9.86719V6.375Z" fill="black"/>
<path d="M6.70312 2.10938H6.35156V1.75781C6.35156 1.56366 6.19416 1.40625 6 1.40625C5.80584 1.40625 5.64844 1.56366 5.64844 1.75781V2.10938H5.29688C5.10272 2.10938 4.94531 2.26678 4.94531 2.46094C4.94531 2.65509 5.10272 2.8125 5.29688 2.8125H5.64844V3.16406C5.64844 3.35822 5.80584 3.51562 6 3.51562C6.19416 3.51562 6.35156 3.35822 6.35156 3.16406V2.8125H6.70312C6.89728 2.8125 7.05469 2.65509 7.05469 2.46094C7.05469 2.26678 6.89728 2.10938 6.70312 2.10938Z" fill="black"/>
</svg>
