<svg width="17" height="22" viewBox="0 0 17 22" fill="none" xmlns="http://www.w3.org/2000/svg">
<path fill-rule="evenodd" clip-rule="evenodd" d="M15.649 4.44826V2.72411C15.649 2.53367 15.4946 2.37929 15.3042 2.37929L0.821385 2.37929C0.63095 2.37929 0.476562 2.53367 0.476562 2.72411L0.476562 20.6552C0.476562 20.8456 0.63095 21 0.821385 21L15.3042 21C15.4946 21 15.649 20.8456 15.649 20.6552L15.649 5.82742V4.44826Z" stroke="#626262" stroke-width="0.8" stroke-linecap="round" stroke-linejoin="round"/>
<path d="M3.92425 2.37931L3.92425 1.68962C3.92425 1.30875 3.61548 0.999974 3.23461 0.999974H3.23457C2.8537 0.999974 2.54492 1.30875 2.54492 1.68962L2.54492 3.7586C2.54492 4.13947 2.8537 4.44824 3.23457 4.44824H3.23461C3.61548 4.44824 3.92425 4.13947 3.92425 3.7586" stroke="#626262" stroke-width="0.8" stroke-linecap="round" stroke-linejoin="round"/>
<path fill-rule="evenodd" clip-rule="evenodd" d="M10.4761 7.20701H8.75198V5.48285C8.75198 5.29242 8.59763 5.13803 8.40716 5.13803H7.71751C7.52708 5.13803 7.37269 5.29242 7.37269 5.48285V7.20701H5.64853C5.4581 7.20701 5.30371 7.36139 5.30371 7.55183V8.24147C5.30371 8.43195 5.4581 8.5863 5.64853 8.5863H7.37269V10.3105C7.37269 10.5009 7.52708 10.6553 7.71751 10.6553H8.40716C8.59763 10.6553 8.75198 10.5009 8.75198 10.3105V8.5863H10.4761C10.6666 8.5863 10.821 8.43195 10.821 8.24147V7.55183C10.821 7.36139 10.6666 7.20701 10.4761 7.20701Z" stroke="#626262" stroke-width="0.8" stroke-linecap="round" stroke-linejoin="round"/>
<path d="M5.99316 15.3044H12.8897" stroke="#626262" stroke-width="0.8" stroke-linecap="round" stroke-linejoin="round"/>
<path d="M5.99316 17.3732H12.8897" stroke="#626262" stroke-width="0.8" stroke-linecap="round" stroke-linejoin="round"/>
<path d="M4.3356 15.3044H3.23438" stroke="#626262" stroke-width="0.8" stroke-linecap="round" stroke-linejoin="round"/>
<path d="M4.3356 17.3732H3.23438" stroke="#626262" stroke-width="0.8" stroke-linecap="round" stroke-linejoin="round"/>
</svg>
