<svg width="22" height="22" viewBox="0 0 22 22" fill="none" xmlns="http://www.w3.org/2000/svg">
<path fill-rule="evenodd" clip-rule="evenodd" d="M16.1495 6.04156C16.1495 8.79536 13.8873 11.0277 11.0967 11.0277C8.30613 11.0277 6.04395 8.79536 6.04395 6.04156C6.04395 3.28777 8.30613 1.00001 11.0967 1.00001C13.8873 1.00001 16.1495 3.28777 16.1495 6.04156Z" stroke="#626262" stroke-width="0.8"/>
<path fill-rule="evenodd" clip-rule="evenodd" d="M16.4371 21L2.65326 21C1.73534 21 0.991211 20.2559 0.991211 19.338V19.338C0.991211 15.6663 4.00744 12.6898 7.72826 12.6898L14.4653 12.6898C17.6061 12.6898 20.9912 15.6157 20.9912 19.338V19.338C21.9078 19.2888 20.2471 21 19.3292 21H16.4371Z" stroke="#626262" stroke-width="0.8"/>
</svg>
