<svg width="15" height="15" viewBox="0 0 15 15" fill="none" xmlns="http://www.w3.org/2000/svg">
<g clip-path="url(#clip0_1_1378)">
<path d="M11.875 7.52885C11.5294 7.52885 11.25 7.80888 11.25 8.15381V13.1538C11.25 13.4982 10.97 13.7788 10.625 13.7788H1.875C1.52996 13.7788 1.25004 13.4982 1.25004 13.1538V4.40381C1.25004 4.05946 1.52996 3.77885 1.875 3.77885H6.87504C7.22065 3.77885 7.5 3.49881 7.5 3.15388C7.5 2.80885 7.22065 2.52881 6.87504 2.52881H1.875C0.841255 2.52881 0 3.37006 0 4.40381V13.1538C0 14.1876 0.841255 15.0288 1.875 15.0288H10.625C11.6588 15.0288 12.5 14.1876 12.5 13.1538V8.15381C12.5 7.8082 12.2206 7.52885 11.875 7.52885Z" fill="black"/>
<path d="M5.85971 6.95949C5.816 7.0032 5.78659 7.05882 5.77411 7.11879L5.33226 9.32887C5.31166 9.4313 5.34416 9.53693 5.41786 9.61131C5.47725 9.67071 5.55725 9.70252 5.63919 9.70252C5.6591 9.70252 5.67981 9.70069 5.70041 9.69634L7.90981 9.25449C7.97103 9.2419 8.02665 9.2126 8.0698 9.16877L13.0148 4.22378L10.8054 2.0145L5.85971 6.95949Z" fill="black"/>
<path d="M14.5426 0.486376C13.9333 -0.123022 12.942 -0.123022 12.3332 0.486376L11.4683 1.35132L13.6777 3.56072L14.5426 2.69566C14.8376 2.40132 15.0001 2.00878 15.0001 1.5913C15.0001 1.17382 14.8376 0.78129 14.5426 0.486376Z" fill="black"/>
</g>
<defs>
<clipPath id="clip0_1_1378">
<rect width="15" height="15" fill="white"/>
</clipPath>
</defs>
</svg>
