<svg width="19" height="19" viewBox="0 0 19 19" fill="none" xmlns="http://www.w3.org/2000/svg">
<path fill-rule="evenodd" clip-rule="evenodd" d="M12.2222 6.67974H17.4414C18.3009 6.67974 19 7.37888 19 8.23834V15.4376C19 16.2969 18.3009 16.9962 17.4414 16.9962H16.7363V18.6289C16.7363 18.7724 16.6537 18.9029 16.5241 18.9643C16.4735 18.9883 16.4193 19 16.3652 19C16.2812 19 16.1978 18.9716 16.1303 18.9162L13.7835 16.9962H8.53501C7.6757 16.9962 6.97656 16.2969 6.97656 15.4376V12.1881C6.69781 12.2271 6.41325 12.2478 6.12377 12.2478C4.79407 12.2478 3.49104 11.8097 2.43313 11.0106L0.854965 11.4231C0.716385 11.4593 0.569397 11.4127 0.477203 11.3031C0.38501 11.1935 0.363991 11.0407 0.423424 10.9104L1.04472 9.5453C0.360512 8.53276 0 7.35438 0 6.12382C0 5.04532 0.284409 3.98465 0.82235 3.05662C0.92527 2.87919 1.15228 2.81888 1.32956 2.92166C1.50684 3.02444 1.56729 3.25144 1.46452 3.42887C0.991951 4.24398 0.742188 5.17593 0.742188 6.12382C0.742188 7.26972 1.09777 8.36373 1.77038 9.28756C1.84909 9.39585 1.86359 9.53791 1.80807 9.65967L1.42219 10.5077L2.40718 10.2501C2.52402 10.2143 2.65231 10.2376 2.74914 10.3156C3.71471 11.094 4.88162 11.5056 6.12377 11.5056C9.09122 11.5056 11.5055 9.09129 11.5055 6.12382C11.5055 3.15635 9.09122 0.742193 6.12377 0.742193C5.17835 0.742193 4.24873 0.990654 3.43537 1.46076C3.25794 1.56324 3.03094 1.50265 2.92831 1.32508C2.82582 1.14765 2.88656 0.920638 3.06399 0.818152C3.99013 0.282961 5.04818 0 6.12377 0C9.50043 0 12.2477 2.74713 12.2477 6.12382C12.2477 6.31125 12.2387 6.49665 12.2222 6.67974ZM17.4414 16.254C17.8916 16.254 18.2578 15.8877 18.2578 15.4376V8.23834C18.2578 7.7881 17.8916 7.42193 17.4414 7.42193H12.1087C11.6241 9.6588 9.91386 11.4438 7.71875 12.0366V15.4376C7.71875 15.8877 8.08492 16.254 8.53501 16.254H13.7731C13.9718 16.254 14.0602 16.254 14.1613 16.3462L15.9941 17.8458V16.6251C15.9941 16.4202 16.1603 16.254 16.3652 16.254H17.4414Z" fill="black"/>
<path fill-rule="evenodd" clip-rule="evenodd" d="M14.9224 12.3532C14.9224 12.4929 14.8306 12.613 14.6984 12.6688L15.167 13.6247C15.2537 13.8013 15.1638 14.0073 14.9666 14.0848C14.9155 14.1048 14.8623 14.1142 14.8101 14.1142C14.6598 14.1142 14.5167 14.0362 14.4525 13.9053L13.8628 12.7024H11.6514L11.0617 13.9053C10.9751 14.0819 10.745 14.1623 10.5477 14.0848C10.3505 14.0073 10.2607 13.8013 10.3473 13.6247L10.8159 12.6688C10.6836 12.613 10.5918 12.4929 10.5918 12.3532C10.5918 12.1605 10.7665 12.004 10.982 12.004H11.1417L12.3998 9.43754C12.462 9.31055 12.6022 9.22858 12.757 9.22858C12.9119 9.22858 13.0521 9.31055 13.1144 9.43754L14.3725 12.004H14.5323C14.7477 12.004 14.9224 12.1605 14.9224 12.3532ZM12.757 10.4469L11.9937 12.004H13.5204L12.757 10.4469Z" fill="black"/>
<path d="M1.9 2.17146C1.97136 2.17146 2.04133 2.14241 2.09191 2.09194C2.14238 2.04147 2.17143 1.97149 2.17143 1.90003C2.17143 1.82867 2.14238 1.7587 2.09191 1.70812C2.04133 1.65765 1.97136 1.6286 1.9 1.6286C1.82833 1.6286 1.75856 1.65765 1.70809 1.70812C1.65762 1.7587 1.62857 1.82867 1.62857 1.90003C1.62857 1.97149 1.65762 2.04147 1.70809 2.09194C1.75856 2.14251 1.82854 2.17146 1.9 2.17146Z" fill="black"/>
<path d="M3.99558 8.52465C3.81322 8.62425 3.74646 8.85215 3.84646 9.03377C3.91499 9.15812 4.04396 9.22857 4.17691 9.22857C4.23809 9.22857 4.30015 9.21363 4.35765 9.18229C5.19723 8.7237 5.84313 8.01041 6.22094 7.16925C6.59889 8.01041 7.24464 8.7237 8.08423 9.18229C8.14173 9.21363 8.20379 9.22857 8.26497 9.22857C8.39791 9.22857 8.52689 9.15812 8.59542 9.03377C8.69542 8.85215 8.62865 8.62425 8.4463 8.52465C7.46347 7.98785 6.80198 7.0285 6.63772 5.9445H8.30923C8.51718 5.9445 8.68571 5.77665 8.68571 5.56955C8.68571 5.36245 8.51718 5.1946 8.30923 5.1946H6.59742V3.63209C6.59742 3.42499 6.42889 3.25714 6.22094 3.25714C6.01299 3.25714 5.84446 3.42499 5.84446 3.63209V5.1946H4.48442C4.27647 5.1946 4.10794 5.36245 4.10794 5.56955C4.10794 5.77665 4.27647 5.9445 4.48442 5.9445H5.80416C5.63989 7.0285 4.9784 7.988 3.99558 8.52465Z" fill="black"/>
</svg>
