<svg width="15" height="15" viewBox="0 0 15 15" fill="none" xmlns="http://www.w3.org/2000/svg">
<path d="M0.207041 4.14573C0.412998 4.2741 0.684053 4.2112 0.812461 4.00528C1.30951 3.20793 2.01103 2.55523 2.84112 2.11774C3.05584 2.00459 3.13819 1.73878 3.02499 1.52409C2.91188 1.30938 2.64606 1.22702 2.43135 1.34023C1.46364 1.85023 0.645938 2.61098 0.066592 3.54031C-0.0617869 3.74626 0.00105486 4.01732 0.207041 4.14573Z" fill="black"/>
<path d="M7.7404 2.11773C8.57046 2.55522 9.27195 3.2079 9.76903 4.00527C9.89744 4.21123 10.1685 4.27404 10.3744 4.14572C10.5804 4.01731 10.6433 3.74626 10.5149 3.5403C9.93555 2.61097 9.11782 1.85022 8.15014 1.34022C7.93545 1.22705 7.66967 1.30934 7.5565 1.52409C7.44335 1.7388 7.52568 2.00459 7.7404 2.11773Z" fill="black"/>
<path d="M14.8537 11.4978L14.3016 11.0035C14.0576 10.7851 14.0576 10.4041 14.3016 10.1857L14.8537 9.69144C15.0086 9.55272 15.0451 9.32441 14.9411 9.14429L14.0724 7.63964C13.9684 7.45959 13.7524 7.37703 13.5549 7.4418L12.8507 7.67278C12.5397 7.77488 12.2096 7.58433 12.1425 7.26391L11.9905 6.53861C11.9478 6.33509 11.7683 6.18931 11.5604 6.18931H9.82292C9.76166 6.18931 9.70304 6.20223 9.64951 6.22529C9.40354 4.30559 7.91401 2.76959 6.01707 2.45275C6.38267 2.21451 6.62504 1.8023 6.62504 1.33432C6.62504 0.59859 6.02648 0 5.29075 0C4.55502 0 3.95643 0.59859 3.95643 1.33432C3.95643 1.80192 4.19842 2.21383 4.56352 2.45216C2.5034 2.79327 0.896245 4.58596 0.896245 6.78646L0.893462 9.59113L0.0933101 10.7686C0.0437986 10.8414 0.0173144 10.9275 0.0173144 11.0156V12.7927C0.0173144 13.0354 0.214071 13.2321 0.456765 13.2321H3.53169C3.53169 13.2349 3.53148 13.2379 3.53148 13.2406C3.53148 14.2107 4.32068 14.9999 5.29075 14.9999C6.26082 14.9999 7.05002 14.2107 7.05002 13.2406C7.05002 13.2379 7.04981 13.2349 7.04981 13.2321H7.12765L7.31093 13.5496C7.41491 13.7297 7.63094 13.8123 7.82855 13.7474L8.53258 13.5163C8.8438 13.4142 9.17382 13.6047 9.24094 13.9253L9.39285 14.6505C9.43547 14.8541 9.61497 14.9999 9.82298 14.9999H11.5604C11.7684 14.9999 11.9479 14.8541 11.9906 14.6505L12.1424 13.9254C12.2095 13.6047 12.5394 13.4144 12.8507 13.5164L13.5549 13.7474C13.7526 13.8123 13.9685 13.7297 14.0725 13.5496L14.9412 12.045C15.0451 11.8649 15.0086 11.6366 14.8537 11.4978ZM5.29075 0.878901C5.54185 0.878901 5.74614 1.08322 5.74614 1.33432C5.74614 1.58542 5.54185 1.78971 5.29075 1.78971C5.03965 1.78971 4.83533 1.58542 4.83533 1.33432C4.83533 1.08322 5.03965 0.878901 5.29075 0.878901ZM0.896245 11.1508L1.69625 9.97351C1.7457 9.90079 1.77216 9.81489 1.77225 9.72694L1.77518 6.78687C1.77518 4.84371 3.34762 3.27127 5.29078 3.27127C7.22928 3.27127 8.80638 4.84837 8.80638 6.78687V7.69068C8.61985 7.72662 8.56018 7.68198 7.82855 7.4418C7.63097 7.37688 7.41494 7.4595 7.31093 7.63961L6.44223 9.14426C6.33822 9.32438 6.37473 9.55272 6.52971 9.69144L7.08186 10.1856C7.32588 10.404 7.3259 10.7852 7.08189 11.0035L6.52974 11.4977C6.37473 11.6364 6.33822 11.8648 6.44223 12.0449L6.62023 12.3532H6.57658C6.57591 12.3532 6.57526 12.3532 6.57459 12.3532H0.896245V11.1508ZM6.17112 13.2406C6.17112 13.7261 5.7762 14.121 5.29075 14.121C4.8053 14.121 4.41038 13.7261 4.41038 13.2406C4.41038 13.2379 4.41059 13.2349 4.41062 13.2321H6.17088C6.17091 13.2349 6.17112 13.2379 6.17112 13.2406ZM13.7153 11.6583L14.0015 11.9146L13.4897 12.8011L13.1245 12.6813C12.3164 12.4163 11.4564 12.9128 11.2821 13.7453L11.2034 14.121H10.1798L10.1011 13.7451C9.92675 12.9126 9.06657 12.4161 8.25842 12.6813L7.89353 12.801L7.38174 11.9146L7.66794 11.6585C8.30172 11.0913 8.30172 10.098 7.66794 9.53077L7.38174 9.27463L7.89353 8.38823L8.25827 8.50797C9.0661 8.77313 9.92649 8.27649 10.1009 7.44435L10.1798 7.06821H11.2034L11.2822 7.4442C11.4567 8.27635 12.3167 8.77296 13.1246 8.50791L13.4896 8.38817L14.0015 9.27469L13.7152 9.53092C13.0818 10.0981 13.0818 11.0911 13.7153 11.6583Z" fill="black"/>
<path d="M10.6916 9.0238C9.82547 9.0238 9.12077 9.72851 9.12077 10.5947C9.12077 11.4609 9.82547 12.1656 10.6916 12.1656C11.5578 12.1656 12.2625 11.4609 12.2625 10.5947C12.2625 9.72851 11.5578 9.0238 10.6916 9.0238ZM10.6916 11.2867C10.3101 11.2867 9.99967 10.9762 9.99967 10.5947C9.99967 10.2131 10.3101 9.90271 10.6916 9.90271C11.0732 9.90271 11.3836 10.2131 11.3836 10.5947C11.3836 10.9763 11.0732 11.2867 10.6916 11.2867Z" fill="black"/>
</svg>
