<svg width="17" height="20" viewBox="0 0 17 20" fill="none" xmlns="http://www.w3.org/2000/svg">
<path d="M7.86781 5.30613C8.03098 5.30613 8.16327 5.12339 8.16327 4.89797C8.16327 4.67256 8.03098 4.48981 7.86781 4.48981H3.96893C3.80576 4.48981 3.67347 4.67256 3.67347 4.89797C3.67347 5.12339 3.80576 5.30613 3.96893 5.30613H7.86781Z" fill="black"/>
<path d="M2.04082 6.9388C2.04082 7.16422 2.17639 7.34697 2.34362 7.34697H9.08495C9.25222 7.34697 9.38775 7.16422 9.38775 6.9388C9.38775 6.71339 9.25222 6.53064 9.08495 6.53064H2.34362C2.17639 6.53064 2.04082 6.71339 2.04082 6.9388Z" fill="black"/>
<path d="M2.34362 8.57145H9.08495C9.25222 8.57145 9.38775 8.38871 9.38775 8.16329C9.38775 7.93788 9.25222 7.75513 9.08495 7.75513H2.34362C2.17639 7.75513 2.04082 7.93788 2.04082 8.16329C2.04082 8.38871 2.17639 8.57145 2.34362 8.57145Z" fill="black"/>
<path d="M2.74672 11.4286H5.00838C5.17281 11.4286 5.30612 11.2458 5.30612 11.0204C5.30612 10.795 5.17281 10.6122 5.00838 10.6122H2.74672C2.58229 10.6122 2.44898 10.795 2.44898 11.0204C2.44898 11.2458 2.58229 11.4286 2.74672 11.4286Z" fill="black"/>
<path fill-rule="evenodd" clip-rule="evenodd" d="M16.3265 12.7728C16.3265 12.9346 16.1935 13.0657 16.0293 13.0657C15.8652 13.0657 15.7321 12.9346 15.7321 12.7727V11.4949L11.7732 9.07799L7.8144 11.4949V14.6945C7.8144 15.5662 8.20044 16.3904 8.87351 16.9558L11.7732 19.3916L14.673 16.9558C15.346 16.3904 15.7321 15.5662 15.7321 14.6945V14.1399C15.7321 13.9782 15.8651 13.847 16.0293 13.847C16.1935 13.847 16.3265 13.9782 16.3265 14.1399V14.6945C16.3265 15.7381 15.8644 16.7249 15.0585 17.4018L12.113 19.876C12.0146 19.9586 11.8939 20 11.7733 20C11.6526 20 11.5319 19.9587 11.4335 19.876L9.74941 18.4614H4.00214C3.83799 18.4614 3.70491 18.3302 3.70491 18.1684C3.70491 18.0066 3.83799 17.8754 4.00214 17.8754H9.05184L8.48799 17.4018C7.85911 16.8735 7.43955 16.1566 7.28562 15.3711H2.65587C2.49172 15.3711 2.35865 15.24 2.35865 15.0782C2.35865 14.9164 2.49172 14.7852 2.65587 14.7852H7.22123C7.22043 14.755 7.21996 14.7248 7.21996 14.6946V14.0039H2.65587C2.49172 14.0039 2.35865 13.8728 2.35865 13.711C2.35865 13.5492 2.49172 13.418 2.65587 13.418H7.21996V12.6367H2.65587C2.49172 12.6367 2.35865 12.5056 2.35865 12.3438C2.35865 12.182 2.49172 12.0508 2.65587 12.0508H7.22V11.4562C7.22 11.391 7.23248 11.328 7.25539 11.2696H5.86474C5.70059 11.2696 5.56751 11.1384 5.56751 10.9766C5.56751 10.8148 5.70059 10.6836 5.86474 10.6836H8.01442L9.29596 9.90123C9.28832 9.90178 9.28071 9.90236 9.2729 9.90236H2.65587C2.49172 9.90236 2.35865 9.77119 2.35865 9.60939C2.35865 9.4476 2.49172 9.31642 2.65587 9.31642H9.2729C9.43709 9.31642 9.57012 9.4476 9.57012 9.60939C9.57012 9.66447 9.55443 9.7158 9.52764 9.75978L11.3344 8.65677V3.26727H0.594447V17.8754H2.61509C2.77924 17.8754 2.91232 18.0066 2.91232 18.1684C2.91232 18.3302 2.77924 18.4614 2.61509 18.4614H0.416113C0.186656 18.4614 0 18.2774 0 18.0512V3.09149C0 2.86532 0.186656 2.68133 0.416113 2.68133H1.3601V1.75082C1.3601 1.52465 1.54675 1.34067 1.77621 1.34067H2.72023V0.410157C2.72023 0.183985 2.90689 0 3.13634 0H14.2329C14.4624 0 14.649 0.183985 14.649 0.410157V10.1445L16.0785 11.0172C16.2338 11.112 16.3265 11.2762 16.3265 11.4562V12.7728ZM11.9288 3.09149V8.50314C11.9703 8.51599 12.0108 8.53381 12.0491 8.5572L12.6945 8.95123V5.35157C12.6945 5.18978 12.8275 5.0586 12.9917 5.0586C13.1559 5.0586 13.2889 5.18978 13.2889 5.35157V9.31412L14.0546 9.78158V0.585939H3.31468V1.34067H12.8728C13.1023 1.34067 13.2889 1.52465 13.2889 1.75082V3.98438C13.2889 4.14618 13.1559 4.27735 12.9917 4.27735C12.8275 4.27735 12.6945 4.14618 12.6945 3.98438V1.92661H1.95454V2.68133H11.5127C11.7422 2.68133 11.9288 2.86532 11.9288 3.09149Z" fill="black"/>
<path fill-rule="evenodd" clip-rule="evenodd" d="M11.6326 16.3265C10.1697 16.3265 8.97959 15.1363 8.97959 13.6734C8.97959 12.2106 10.1697 11.0204 11.6326 11.0204C13.0956 11.0204 14.2857 12.2105 14.2857 13.6734C14.2857 15.1364 13.0956 16.3265 11.6326 16.3265ZM11.6326 15.7472C12.7761 15.7472 13.7064 14.8169 13.7064 13.6734C13.7064 12.53 12.7761 11.5997 11.6326 11.5997C10.4892 11.5997 9.55887 12.5299 9.55887 13.6734C9.55887 14.817 10.4892 15.7472 11.6326 15.7472Z" fill="black"/>
<path d="M11.125 13.522C11.0077 13.4109 10.8175 13.4109 10.7002 13.522C10.5829 13.6331 10.5829 13.8132 10.7002 13.9242L11.425 14.6106C11.4837 14.6661 11.5606 14.6939 11.6374 14.6939C11.7143 14.6939 11.7912 14.6661 11.8498 14.6106L12.9732 13.5467C13.0905 13.4357 13.0905 13.2556 12.9732 13.1445C12.8559 13.0334 12.6658 13.0334 12.5485 13.1445L11.6375 14.0072L11.125 13.522Z" fill="black"/>
</svg>
